<svg width="50" height="50" viewBox="0 0 50 50" fill="none" xmlns="http://www.w3.org/2000/svg">
<path d="M26.206 37.2127C26.206 35.8794 24.5484 34.8246 24.157 33.6208C23.7524 32.3744 24.46 30.5482 23.7049 29.5098C22.9417 28.4615 20.9828 28.5745 19.9346 27.8113C18.8961 27.0562 18.4015 25.153 17.1551 24.7485C15.9512 24.357 14.4379 25.5936 13.1046 25.5936C11.7714 25.5936 10.258 24.357 9.05416 24.7485C7.80774 25.153 7.3131 27.0562 6.27469 27.8113C5.22645 28.5745 3.26592 28.4615 2.50431 29.5098C1.74925 30.5482 2.45681 32.3728 2.05062 33.6208C1.65753 34.8246 0 35.8794 0 37.2127C0 38.5459 1.65753 39.6007 2.04898 40.8045C2.45353 42.0509 1.74597 43.8772 2.50267 44.9156C3.26592 45.9638 5.22481 45.8508 6.27305 46.6141C7.31146 47.3691 7.8061 49.2723 9.05252 49.6769C10.2564 50.0683 11.7698 48.8317 13.103 48.8317C14.4362 48.8317 15.9496 50.0683 17.1534 49.6769C18.3999 49.2723 18.8945 47.3691 19.9329 46.6141C20.9812 45.8508 22.9417 45.9638 23.7033 44.9156C24.4584 43.8772 23.7508 42.0526 24.157 40.8045C24.5484 39.6007 26.206 38.5459 26.206 37.2127ZM18.5768 34.2825L12.8442 41.6529C12.628 41.9297 12.3021 42.1017 11.9516 42.1247C11.9254 42.1263 11.9008 42.1263 11.8746 42.1263C11.5503 42.1263 11.2374 41.9985 11.0065 41.766L7.73076 38.4902C7.25086 38.0103 7.25086 37.2323 7.73076 36.7524C8.21066 36.2725 8.98865 36.2725 9.46854 36.7524L11.7599 39.0438L16.6392 32.7708C17.0535 32.2352 17.8266 32.1402 18.3622 32.5562C18.8978 32.9722 18.9928 33.7469 18.5768 34.2825Z" fill="white"/>
<path d="M46.3153 2H19.6507C17.8409 2 16.375 3.4659 16.375 5.27575V22.2376C16.4651 22.2326 16.5503 22.2163 16.6403 22.2163C17.0809 22.2163 17.5051 22.2834 17.9064 22.4128C19.4509 22.914 20.2633 24.1702 20.8562 25.0875C21.0233 25.3462 21.2755 25.7361 21.3934 25.8425C21.4934 25.8966 21.952 26.0194 22.2566 26.1013C23.3048 26.3814 24.7396 26.7663 25.6847 28.0651C26.6248 29.3574 26.5495 30.8348 26.4954 31.9158C26.479 32.2351 26.4545 32.7199 26.4938 32.8788C26.5413 32.9738 26.8263 33.3227 27.0163 33.5569C27.7091 34.407 28.659 35.5731 28.659 37.2143C28.659 38.8554 27.7091 40.0216 27.0179 40.8716C26.8279 41.1059 26.5429 41.4547 26.479 41.5939C26.4561 41.707 26.4807 42.1901 26.4971 42.5112C26.5511 43.5921 26.6264 45.0695 25.6863 46.3634C24.7396 47.6623 23.3048 48.0472 22.2582 48.3272C21.9536 48.4091 21.495 48.532 21.3574 48.6155C21.2788 48.6925 21.0249 49.0823 20.8579 49.3411C20.8267 49.3902 20.7858 49.4475 20.753 49.4983H37.9491C38.8171 49.4983 39.6508 49.1527 40.265 48.5385L48.6313 42.2687C49.2455 41.6545 49.5911 40.8209 49.5911 39.9528V5.27575C49.5911 3.4659 48.1252 2 46.3153 2ZM40.9431 21.245H31.9348C31.2567 21.245 30.7064 20.6947 30.7064 20.0166C30.7064 19.3385 31.2567 18.7882 31.9348 18.7882H40.9431C41.6212 18.7882 42.1715 19.3385 42.1715 20.0166C42.1715 20.6947 41.6212 21.245 40.9431 21.245ZM40.9431 15.5125H27.0212C26.3431 15.5125 25.7928 14.9621 25.7928 14.284C25.7928 13.606 26.3431 13.0556 27.0212 13.0556H40.9431C41.6212 13.0556 42.1715 13.606 42.1715 14.284C42.1715 14.9621 41.6212 15.5125 40.9431 15.5125ZM40.9431 9.7799H23.7454C23.0673 9.7799 22.517 9.22957 22.517 8.55149C22.517 7.87341 23.0673 7.32309 23.7454 7.32309H40.9431C41.6212 7.32309 42.1715 7.87341 42.1715 8.55149C42.1715 9.22957 41.6212 9.7799 40.9431 9.7799Z" fill="white"/>
</svg>
