<svg width="51" height="50" viewBox="0 0 51 50" fill="none" xmlns="http://www.w3.org/2000/svg">
<g clip-path="url(#clip0_4474_22553)">
<mask id="mask0_4474_22553" style="mask-type:luminance" maskUnits="userSpaceOnUse" x="0" y="-43" width="51" height="93">
<path d="M50.6719 0H0.671875V50H50.6719V0Z" fill="white"/>
<path d="M25.6726 -42.9388C13.6017 -42.9388 3.78125 -33.1184 3.78125 -21.0475C3.78125 -8.97656 13.6017 0.84375 25.6726 0.84375C37.7435 0.84375 47.5639 -8.97656 47.5639 -21.0475C47.5639 -33.1184 37.7435 -42.9388 25.6726 -42.9388ZM25.6726 -40.0091C36.128 -40.0091 44.6342 -31.5029 44.6342 -21.0475C44.6342 -10.592 36.128 -2.08594 25.6726 -2.08594C15.2171 -2.08594 6.71094 -10.592 6.71094 -21.0475C6.71094 -31.5029 15.2171 -40.0091 25.6726 -40.0091Z" fill="black"/>
<path d="M29.7799 42.2764V22.6173H21.5645V42.2764L15.1094 44.7878V48.5312H36.235V44.7878L29.7799 42.2764Z" fill="white"/>
<path d="M18.6478 23.9531H16.7229C9.4374 23.9531 3.53125 18.047 3.53125 10.7614V6.67715H18.6478V23.9531Z" fill="black"/>
<path d="M32.6992 23.9531H34.624C41.9096 23.9531 47.8157 18.047 47.8157 10.7614V6.67715H32.6992V23.9531Z" fill="black"/>
<path d="M10.5547 1.46182L12.2433 21.4507C12.5539 23.2225 13.2245 24.9116 14.2138 26.4141C16.6478 30.1106 20.7771 32.3359 25.2031 32.3359H25.6712H26.1392C30.5651 32.3359 34.6946 30.1106 37.1286 26.4141C38.1178 24.9116 38.7885 23.2225 39.0991 21.4507L40.7877 1.46182H10.5547Z" fill="white"/>
<path d="M25.6721 8.55391L28.2209 12.2583L32.5316 13.5377L29.7962 17.1064L29.9115 21.6016L25.6721 20.1028L21.4326 21.6016L21.5479 17.1064L18.8125 13.5377L23.1232 12.2583L25.6721 8.55391Z" fill="white"/>
<path d="M25.6721 8.55391L28.2209 12.2583L32.5316 13.5377L29.7962 17.1064L29.9115 21.6016L25.6721 20.1028L21.4326 21.6016L21.5479 17.1064L18.8125 13.5377L23.1232 12.2583L25.6721 8.55391Z" stroke="black" stroke-width="2.92969" stroke-miterlimit="10" stroke-linecap="square"/>
<path d="M15.7773 40.625H35.569" stroke="black" stroke-width="2.92969" stroke-miterlimit="10"/>
</mask>
<g mask="url(#mask0_4474_22553)">
<mask id="mask1_4474_22553" style="mask-type:luminance" maskUnits="userSpaceOnUse" x="0" y="0" width="51" height="51">
<path d="M0.675781 0.00781631H50.6758V50.0078H0.675781V0.00781631Z" fill="white"/>
</mask>
<g mask="url(#mask1_4474_22553)">
<path d="M25.6765 -42.931C13.6056 -42.931 3.78516 -33.1105 3.78516 -21.0396C3.78516 -8.96875 13.6056 0.851562 25.6765 0.851562C37.7474 0.851562 47.5678 -8.96875 47.5678 -21.0396C47.5678 -33.1105 37.7474 -42.931 25.6765 -42.931ZM25.6765 -40.0013C36.1319 -40.0013 44.6381 -31.4951 44.6381 -21.0396C44.6381 -10.5842 36.1319 -2.07812 25.6765 -2.07812C15.221 -2.07812 6.71484 -10.5842 6.71484 -21.0396C6.71484 -31.4951 15.221 -40.0013 25.6765 -40.0013Z" fill="white"/>
</g>
<path d="M29.7799 42.2842V22.6251H21.5645V42.2842L15.1094 44.7956V48.5391H36.235V44.7956L29.7799 42.2842Z" fill="white"/>
<mask id="mask2_4474_22553" style="mask-type:luminance" maskUnits="userSpaceOnUse" x="0" y="0" width="51" height="51">
<path d="M0.675781 0.00781631H50.6758V50.0078H0.675781V0.00781631Z" fill="white"/>
</mask>
<g mask="url(#mask2_4474_22553)">
<path d="M29.7838 42.292V22.6329H21.5684V42.292L15.1133 44.8034V48.5469H36.2389V44.8034L29.7838 42.292Z" stroke="white" stroke-width="2.92969" stroke-miterlimit="10"/>
<path d="M18.6517 23.9688H16.7269C9.44131 23.9688 3.53516 18.0626 3.53516 10.7771V6.69277H18.6517V23.9688Z" fill="white"/>
<path d="M18.6517 23.9688H16.7269C9.44131 23.9688 3.53516 18.0626 3.53516 10.7771V6.69277H18.6517V23.9688Z" stroke="white" stroke-width="5" stroke-miterlimit="10"/>
<path d="M32.6992 23.9688H34.624C41.9096 23.9688 47.8157 18.0626 47.8157 10.7771V6.69277H32.6992V23.9688Z" fill="white"/>
<path d="M32.6992 23.9688H34.624C41.9096 23.9688 47.8157 18.0626 47.8157 10.7771V6.69277H32.6992V23.9688Z" stroke="white" stroke-width="5" stroke-miterlimit="10"/>
<path d="M10.5625 1.47744L12.2511 21.4663C12.5617 23.2381 13.2323 24.9272 14.2216 26.4297C16.6556 30.1263 20.785 32.3516 25.2109 32.3516H25.679H26.147C30.5729 32.3516 34.7024 30.1263 37.1364 26.4297C38.1256 24.9272 38.7963 23.2381 39.1069 21.4663L40.7955 1.47744H10.5625Z" fill="white"/>
<path d="M10.5625 1.47744L12.2511 21.4663C12.5617 23.2381 13.2323 24.9272 14.2216 26.4297C16.6556 30.1263 20.785 32.3516 25.2109 32.3516H25.679H26.147C30.5729 32.3516 34.7024 30.1263 37.1364 26.4297C38.1256 24.9272 38.7963 23.2381 39.1069 21.4663L40.7955 1.47744H10.5625Z" stroke="white" stroke-width="2.92969" stroke-miterlimit="10"/>
<path d="M25.676 8.56953L28.2248 12.2739L32.5355 13.5533L29.8001 17.1221L29.9154 21.6172L25.676 20.1185L21.4365 21.6172L21.5519 17.1221L18.8164 13.5533L23.1271 12.2739L25.676 8.56953Z" fill="white"/>
<path d="M25.676 8.56953L28.2248 12.2739L32.5355 13.5533L29.8001 17.1221L29.9154 21.6172L25.676 20.1185L21.4365 21.6172L21.5519 17.1221L18.8164 13.5533L23.1271 12.2739L25.676 8.56953Z" stroke="white" stroke-width="2.92969" stroke-miterlimit="10" stroke-linecap="square"/>
<path d="M15.7812 40.6406H35.5729" stroke="white" stroke-width="2.92969" stroke-miterlimit="10"/>
</g>
</g>
</g>
<defs>
<clipPath id="clip0_4474_22553">
<rect width="50" height="50" fill="white" transform="translate(0.667969)"/>
</clipPath>
</defs>
</svg>
