<svg width="50" height="50" viewBox="0 0 50 50" fill="none" xmlns="http://www.w3.org/2000/svg">
<g clip-path="url(#clip0_4536_8262)">
<path d="M0.428894 42.3587C1.00087 41.7867 1.92842 41.7867 2.50049 42.3587C5.53871 45.397 9.58513 47.0703 13.8945 47.0703C18.2038 47.0703 22.2502 45.397 25.2884 42.3587C25.8604 41.7867 26.7879 41.7867 27.36 42.3587C27.9321 42.9307 27.9321 43.8583 27.36 44.4305C23.7686 48.0222 18.9864 50.0003 13.8945 50.0003C8.80251 50.0003 4.02043 48.0222 0.428894 44.4305C-0.143084 43.8583 -0.143084 42.9307 0.428894 42.3587Z" fill="white"/>
<path d="M23.2194 38.2181C23.7915 38.7901 23.7915 39.7177 23.2194 40.2898C20.6492 42.8602 17.2731 44.1454 13.8971 44.1454C10.521 44.1454 7.14491 42.8603 4.57487 40.2898C4.00279 39.7178 4.00279 38.7902 4.57487 38.2181C5.14685 37.6461 6.07439 37.6461 6.64647 38.2181C10.6444 42.2164 17.1497 42.2165 21.1479 38.2181C21.7199 37.6461 22.6474 37.6461 23.2194 38.2181Z" fill="white"/>
<path d="M19.071 34.0775C19.643 34.6495 19.643 35.5772 19.071 36.1493C17.6432 37.5772 15.7676 38.2913 13.892 38.2913C12.0164 38.2913 10.1408 37.5772 8.71291 36.1493C8.14083 35.5773 8.14083 34.6496 8.71291 34.0775C9.28499 33.5054 10.2124 33.5054 10.7845 34.0775C12.498 35.791 15.2859 35.791 16.9994 34.0775C17.5714 33.5055 18.4989 33.5055 19.071 34.0775Z" fill="white"/>
<path d="M13.8944 32.4377C13.0854 32.4377 12.4295 31.7819 12.4295 30.9728C12.4295 30.1637 13.0854 29.5078 13.8944 29.5078C14.7035 29.5078 15.3594 30.1637 15.3594 30.9728C15.3594 31.7819 14.7035 32.4377 13.8944 32.4377Z" fill="white"/>
<path d="M16.1441 26.9563C15.83 27.0117 15.5175 27.0385 15.2089 27.0385C12.6528 27.0383 10.3808 25.2017 9.92191 22.5991L7.88693 11.0575C7.37266 8.14061 9.32718 5.34917 12.2437 4.83477L12.7246 4.75L16.625 26.8716L16.1441 26.9563Z" fill="white"/>
<path d="M42.4479 27.2541C41.9242 28.002 41.1406 28.5013 40.2415 28.6599L37.8372 29.0838L38.4036 32.2966C39.9931 32.561 41.2964 33.6808 41.8231 35.166H47.0703V30.7711C47.0703 29.962 47.7262 29.3061 48.5351 29.3061C49.3441 29.3061 50 29.962 50 30.7711V42.4908C50 43.2999 49.3441 43.9558 48.5351 43.9558C47.7262 43.9558 47.0703 43.2999 47.0703 42.4908V38.0959H41.8232C41.2185 39.801 39.5902 41.0258 37.6805 41.0258C35.2574 41.0258 33.286 39.0543 33.286 36.6309C33.286 34.9931 34.1871 33.5628 35.5188 32.8069L34.9521 29.5926L32.5477 30.0165C32.3478 30.0517 32.149 30.0688 31.9526 30.0688C30.4865 30.0688 29.1678 29.1192 28.7079 27.7192L43.0647 25.1875C43.089 25.9219 42.8769 26.6414 42.4479 27.2541Z" fill="white"/>
<path d="M43.0688 22.2046L19.5064 26.3595L15.6059 4.23796L39.1685 0.0829256C40.5814 -0.166021 42.0067 0.149826 43.1819 0.972746C44.3572 1.79576 45.1416 3.02712 45.3907 4.44013L47.4257 15.9818C47.9399 18.8988 45.9854 21.6902 43.0688 22.2046ZM34.2738 8.87907C34.1333 8.08232 33.3736 7.55025 32.5768 7.69079C31.7801 7.83123 31.2481 8.59116 31.3886 9.3879C31.5291 10.1846 32.2888 10.7167 33.0856 10.5762C33.8823 10.4356 34.4143 9.67592 34.2738 8.87907ZM40.0443 7.86151C39.9037 7.06476 39.1441 6.53268 38.3473 6.67322C37.5506 6.81376 37.0186 7.57359 37.1591 8.37034C37.2996 9.16708 38.0593 9.69916 38.8561 9.55862C39.6528 9.41808 40.1847 8.65835 40.0443 7.86151Z" fill="white"/>
<path d="M3.51745 25.2284C3.2817 25.2284 3.04655 25.1707 2.83072 25.056C2.42965 24.8428 2.15435 24.4641 2.07544 24.0168L0.0270848 12.3992C-0.0518222 11.9518 0.0773778 11.5017 0.381482 11.1641C0.685489 10.8267 1.11948 10.6513 1.5728 10.6834L4.88631 10.9172L7.14844 23.7471L4.11472 25.1002C3.92312 25.1858 3.71999 25.2284 3.51745 25.2284Z" fill="white"/>
</g>
<defs>
<clipPath id="clip0_4536_8262">
<rect width="50" height="50" fill="white"/>
</clipPath>
</defs>
</svg>
