<svg width="50" height="50" viewBox="0 0 50 50" fill="none" xmlns="http://www.w3.org/2000/svg">
<g clip-path="url(#clip0_4536_8049)">
<path d="M25 25.0625C28.4518 25.0625 31.25 22.2643 31.25 18.8125C31.25 15.3607 28.4518 12.5625 25 12.5625C21.5482 12.5625 18.75 15.3607 18.75 18.8125C18.75 22.2643 21.5482 25.0625 25 25.0625Z" fill="white"/>
<path d="M10.1562 20.375C12.7451 20.375 14.8438 18.2763 14.8438 15.6875C14.8438 13.0987 12.7451 11 10.1562 11C7.56742 11 5.46875 13.0987 5.46875 15.6875C5.46875 18.2763 7.56742 20.375 10.1562 20.375Z" fill="white"/>
<path d="M39.8438 20.375C42.4326 20.375 44.5312 18.2763 44.5312 15.6875C44.5312 13.0987 42.4326 11 39.8438 11C37.2549 11 35.1562 13.0987 35.1562 15.6875C35.1562 18.2763 37.2549 20.375 39.8438 20.375Z" fill="white"/>
<path d="M35.0696 37.4953L33.1978 29.0719C32.8806 27.6422 31.6118 26.625 30.1478 26.625H26.1681V35.4891C26.1681 36.1359 25.6431 36.6609 24.9962 36.6609C24.3493 36.6609 23.8243 36.1359 23.8243 35.4891V26.625H19.8446C18.3806 26.625 17.1118 27.6422 16.7946 29.0719L14.9228 37.4953C14.6634 38.6578 14.9431 39.8578 15.6884 40.7859C16.4337 41.7141 17.5446 42.2484 18.7353 42.2484H31.2571C32.4478 42.2484 33.5587 41.7156 34.304 40.7859C35.0493 39.8563 35.329 38.6578 35.0696 37.4953Z" fill="white"/>
<path d="M49.9125 32.8078L48.0406 24.3844C47.7234 22.9547 46.4547 21.9375 44.9906 21.9375H41.0109V30.4672C41.0109 31.1141 40.4859 31.6391 39.8391 31.6391C39.1922 31.6391 38.6672 31.1141 38.6672 30.4672V21.9375H37.0172C35.1078 21.9375 33.4781 23.3172 33.1641 25.2L33.125 25.4375C34.3547 26.3063 35.2703 27.6031 35.6203 29.1734L37.3562 36.9875C37.3984 37.1781 37.3938 37.3703 37.4188 37.5625H46.1C47.2906 37.5625 48.4016 37.0297 49.1469 36.1C49.8922 35.1703 50.1719 33.9703 49.9125 32.8078Z" fill="white"/>
<path d="M16.2172 24.8234C15.7563 23.1203 14.2109 21.9375 12.4469 21.9375H11.3234V30.4672C11.3234 31.1141 10.7984 31.6391 10.1516 31.6391C9.5047 31.6391 8.9797 31.1141 8.9797 30.4672V21.9375H5.00001C3.53595 21.9375 2.2672 22.9547 1.95001 24.3844L0.0781361 32.8078C-0.179676 33.9703 0.100011 35.1703 0.845324 36.1C1.59064 37.0297 2.70157 37.5625 3.8922 37.5625H12.5734C12.5984 37.3703 12.5922 37.1781 12.6359 36.9875L14.3719 29.175C14.6828 27.7766 15.4391 26.5906 16.4672 25.7328L16.2172 24.8234Z" fill="white"/>
</g>
<defs>
<clipPath id="clip0_4536_8049">
<rect width="50" height="50" fill="white"/>
</clipPath>
</defs>
</svg>
