<svg width="52" height="52" viewBox="0 0 52 52" fill="none" xmlns="http://www.w3.org/2000/svg">
<path d="M25.4899 33.8431C25.1205 33.5891 24.6828 33.4531 24.2345 33.4531C23.7863 33.4531 23.3486 33.5891 22.9792 33.8431C22.9792 33.8431 4.62127 46.4964 4.74673 46.4044C5.41506 46.9262 6.23881 47.2094 7.08673 47.2087H41.3824C42.2303 47.2094 43.054 46.9262 43.7224 46.4044C43.3827 46.1344 25.4899 33.8431 25.4899 33.8431Z" fill="#159F4A"/>
<path d="M39.3384 11.375C36.8435 11.3765 34.4513 12.3683 32.6871 14.1324C30.923 15.8966 29.9312 18.2889 29.9297 20.7837C30.4537 33.2676 48.2201 33.2641 48.7472 20.7837C48.7443 18.2892 47.7521 15.8977 45.9882 14.1339C44.2243 12.3701 41.8329 11.3779 39.3384 11.375ZM43.7422 19.24L37.8434 23.6275C37.7497 23.6974 37.6419 23.7462 37.5275 23.7706C37.4132 23.7951 37.2949 23.7945 37.1807 23.7691C37.0666 23.7436 36.9593 23.6939 36.8661 23.6231C36.773 23.5524 36.6962 23.4625 36.6409 23.3594L34.6991 19.6787C34.598 19.4891 34.5764 19.2671 34.6388 19.0614C34.7013 18.8558 34.8427 18.6833 35.0322 18.5819C35.2233 18.4814 35.4462 18.4601 35.6528 18.5224C35.8595 18.5847 36.0335 18.7257 36.1372 18.915L37.6322 21.7588L42.7753 17.9319C42.949 17.8088 43.1641 17.7588 43.3743 17.7925C43.5845 17.8262 43.7731 17.941 43.8997 18.1122C44.0262 18.2834 44.0806 18.4974 44.0512 18.7083C44.0217 18.9191 43.9108 19.11 43.7422 19.24Z" fill="#159F4A"/>
<path d="M39.3441 31.8231C37.9879 31.8259 36.6431 31.5751 35.3791 31.0838L29.9922 34.9756L43.4147 44.2219L44.7716 45.1562C45.0645 44.6089 45.218 43.9977 45.2184 43.3769V30.125C43.4616 31.238 41.4238 31.8271 39.3441 31.8231Z" fill="#159F4A"/>
<path d="M19.8186 34.0469L22.053 32.5031C22.6952 32.0625 23.4557 31.8267 24.2345 31.8267C25.0133 31.8267 25.7739 32.0625 26.4161 32.5031L28.5773 33.99L33.7205 30.2769C31.5941 29.0178 29.952 27.0812 29.0575 24.7776C28.163 22.474 28.0677 19.9368 28.7871 17.5727C29.5065 15.2085 30.9988 13.1543 33.0248 11.7394C35.0508 10.3244 37.4932 9.63071 39.9605 9.76938V8.63187C39.96 7.61492 39.5558 6.63976 38.8367 5.92067C38.1176 5.20158 37.1424 4.79737 36.1255 4.79688H12.2217C11.2048 4.79737 10.2296 5.20158 9.51051 5.92067C8.79142 6.63976 8.38722 7.61492 8.38672 8.63187C8.38672 8.63187 8.38802 24.1926 8.38672 25.7025C9.16817 26.2348 18.7493 33.2939 19.8186 34.0469ZM24.1736 26.1088H13.0017C12.7883 26.1056 12.5847 26.0186 12.4349 25.8665C12.2852 25.7145 12.2012 25.5097 12.2012 25.2962C12.2012 25.0828 12.2852 24.878 12.435 24.7259C12.5848 24.5739 12.7884 24.4869 13.0018 24.4837H24.1736C24.3869 24.4871 24.5904 24.5741 24.74 24.7261C24.8897 24.8781 24.9736 25.0829 24.9736 25.2962C24.9736 25.5096 24.8897 25.7144 24.74 25.8664C24.5904 26.0184 24.3869 26.1054 24.1736 26.1088ZM25.693 20.9494H13.0017C12.7883 20.9462 12.5847 20.8592 12.4349 20.7072C12.2852 20.5551 12.2012 20.3503 12.2012 20.1369C12.2012 19.9234 12.2852 19.7186 12.435 19.5666C12.5848 19.4145 12.7884 19.3275 13.0018 19.3244H25.693C25.9064 19.3275 26.11 19.4145 26.2598 19.5666C26.4095 19.7186 26.4935 19.9235 26.4935 20.1369C26.4935 20.3503 26.4095 20.5552 26.2598 20.7072C26.11 20.8592 25.9064 20.9462 25.693 20.9494ZM12.1892 16.05C12.1899 15.8347 12.2757 15.6284 12.4279 15.4762C12.5801 15.324 12.7864 15.2381 13.0017 15.2375H25.368C25.5835 15.2375 25.7901 15.3231 25.9425 15.4755C26.0949 15.6278 26.1805 15.8345 26.1805 16.05C26.1805 16.2655 26.0949 16.4722 25.9425 16.6245C25.7901 16.7769 25.5835 16.8625 25.368 16.8625H13.0017C12.7864 16.8619 12.5801 16.776 12.4279 16.6238C12.2757 16.4716 12.1899 16.2653 12.1892 16.05ZM30.2105 11.7113H13.0017C12.7883 11.7081 12.5847 11.6211 12.4349 11.469C12.2852 11.317 12.2012 11.1122 12.2012 10.8987C12.2012 10.6853 12.2852 10.4805 12.435 10.3284C12.5848 10.1764 12.7884 10.0894 13.0018 10.0862H30.2105C30.4239 10.0894 30.6275 10.1764 30.7772 10.3284C30.927 10.4805 31.011 10.6853 31.011 10.8987C31.011 11.1122 30.927 11.317 30.7772 11.4691C30.6275 11.6211 30.4239 11.7081 30.2105 11.7113Z" fill="#159F4A"/>
<path d="M18.395 35.0237C14.7096 32.3377 6.92847 26.6463 3.33938 24.0469C3.2825 24.315 3.25 43.3763 3.25 43.3763C3.25049 43.9971 3.40398 44.6082 3.69688 45.1556C4.05828 44.9516 17.5825 35.5621 18.395 35.0237Z" fill="#159F4A"/>
<path d="M6.76062 24.52C6.75986 23.3775 6.76117 21.0767 6.76062 19.9375C6.76062 19.9375 4.16875 22.375 4.04688 22.5456L6.76062 24.52Z" fill="#159F4A"/>
</svg>
