<svg width="51" height="50" viewBox="0 0 51 50" fill="none" xmlns="http://www.w3.org/2000/svg">
<g clip-path="url(#clip0_4151_320)">
<path d="M49.0859 18.1367L45.1143 17.5264C44.957 17.1104 44.7871 16.6992 44.6035 16.2939L46.9805 13.0537C47.4082 12.4707 47.3457 11.6631 46.835 11.1514L39.1768 3.49316C38.666 2.98242 37.8574 2.91992 37.2744 3.34766L34.0342 5.72461C33.6289 5.54102 33.2178 5.37109 32.8018 5.21387L32.1914 1.24219C32.0811 0.527344 31.4658 0 30.7432 0H19.9131C19.1904 0 18.5752 0.527344 18.4648 1.24219L17.8545 5.21387C17.4385 5.37109 17.0273 5.54102 16.6221 5.72461L13.3818 3.34766C12.7988 2.91992 11.9902 2.98242 11.4795 3.49316L3.82129 11.1514C3.31055 11.6631 3.24805 12.4707 3.67578 13.0537L6.05273 16.2939C5.86914 16.6992 5.69922 17.1104 5.54199 17.5264L1.57031 18.1367C0.855469 18.2471 0.328125 18.8623 0.328125 19.585V30.415C0.328125 31.1377 0.855469 31.7529 1.57031 31.8633L5.54199 32.4736C5.69922 32.8896 5.86914 33.3008 6.05273 33.7061L3.67578 36.9463C3.24805 37.5293 3.31055 38.3369 3.82129 38.8486L11.4795 46.5068C11.9902 47.0176 12.7988 47.0801 13.3818 46.6523L16.6221 44.2754C17.0273 44.459 17.4385 44.6289 17.8545 44.7861L18.4648 48.7578C18.5752 49.4727 19.1904 50 19.9131 50H30.7432C31.4658 50 32.0811 49.4727 32.1914 48.7578L32.8018 44.7861C33.2178 44.6289 33.6289 44.459 34.0342 44.2754L37.2744 46.6523C37.8574 47.0801 38.666 47.0176 39.1768 46.5068L46.835 38.8486C47.3457 38.3369 47.4082 37.5293 46.9805 36.9463L44.6035 33.7061C44.7871 33.3008 44.957 32.8896 45.1143 32.4736L49.0859 31.8633C49.8008 31.7529 50.3281 31.1377 50.3281 30.415V19.585C50.3281 18.8623 49.8008 18.2471 49.0859 18.1367ZM25.3281 41.6016C16.1738 41.6016 8.72656 34.1543 8.72656 25C8.72656 15.8457 16.1738 8.39844 25.3281 8.39844C34.4824 8.39844 41.9297 15.8457 41.9297 25C41.9297 34.1543 34.4824 41.6016 25.3281 41.6016Z" fill="white"/>
<path d="M23.79 29.1113C23.8223 29.3584 23.8418 29.5957 23.8535 29.8145C23.6348 29.8027 23.3984 29.7832 23.1504 29.751C22.248 29.6338 21.0029 29.3252 20.1953 28.5176C19.3867 27.71 19.0781 26.4648 18.9619 25.5625C18.9297 25.3145 18.9102 25.0771 18.8984 24.8594C19.1172 24.8701 19.3545 24.8906 19.6016 24.9219C20.5039 25.0391 21.749 25.3477 22.5576 26.1553C22.9609 26.5596 23.2402 27.0723 23.4336 27.5977C23.626 28.123 23.7324 28.6602 23.79 29.1113Z" fill="white"/>
<path d="M26.9922 23.3008C26.3545 23.7147 25.7588 24.2953 25.3281 24.9258C24.8975 24.2953 24.3018 23.7147 23.6641 23.3008C23.7305 22.041 24.5732 20.7959 25.3262 19.9531C26.041 20.7441 26.9258 21.9814 26.9922 23.3008Z" fill="white"/>
<path d="M31.0566 24.9219C31.3037 24.8906 31.541 24.8701 31.7588 24.8594C31.7021 25.9658 31.4365 27.5439 30.4629 28.5176C29.4143 29.5106 28.0272 29.7278 26.8047 29.8145C26.8164 29.5957 26.8359 29.3584 26.8682 29.1113C26.9844 28.209 27.293 26.9629 28.1006 26.1553C28.5049 25.751 29.0186 25.4727 29.543 25.2793C30.0684 25.0869 30.6055 24.9805 31.0566 24.9219Z" fill="white"/>
<path d="M25.3281 11.3281C17.7891 11.3281 11.6562 17.4609 11.6562 25C11.6562 32.5391 17.7891 38.6719 25.3281 38.6719C32.8672 38.6719 39 32.5391 39 25C39 17.4609 32.8672 11.3281 25.3281 11.3281ZM32.5352 30.5908C30.6504 32.4756 27.8008 32.7578 26.2646 32.7578C25.8301 32.7578 25.501 32.7353 25.3281 32.7197C25.1553 32.7353 24.8262 32.7578 24.3916 32.7578C22.8555 32.7578 20.0068 32.4756 18.1211 30.5908C15.4883 27.957 15.9824 23.4443 16.0049 23.2529C16.084 22.5791 16.6152 22.0479 17.29 21.9688C17.4023 21.9551 19.0195 21.7783 20.8682 22.1758C21.1191 20.9941 21.707 19.7939 22.6064 18.6436C23.4883 17.5166 24.3818 16.8057 24.4199 16.7754C24.9521 16.3545 25.7041 16.3545 26.2363 16.7754C26.2744 16.8057 27.168 17.5166 28.0498 18.6436C28.9492 19.7939 29.5371 20.9941 29.7881 22.1758C31.6367 21.7783 33.2539 21.9551 33.3662 21.9688C34.041 22.0479 34.5723 22.5791 34.6514 23.2529C34.6738 23.4443 35.168 27.957 32.5352 30.5908Z" fill="white"/>
</g>
<defs>
<clipPath id="clip0_4151_320">
<rect width="50" height="50" fill="white" transform="translate(0.328125)"/>
</clipPath>
</defs>
</svg>
