<svg width="1800" height="198" viewBox="0 0 1800 198" fill="none" xmlns="http://www.w3.org/2000/svg">
<path d="M1617.44 163.878V161.184L1626.46 160.286C1628.56 160.136 1629.99 159.388 1630.74 158.041C1631.49 156.694 1631.87 154.075 1631.87 150.184V61.2857C1631.87 57.3946 1631.49 54.7755 1630.74 53.4286C1629.99 52.0816 1628.56 51.3333 1626.46 51.1837L1617.44 50.2857V47.5918H1681V50.0612L1672.66 51.1837C1670.56 51.483 1669.2 52.3061 1668.6 53.6531C1668 54.8503 1667.7 57.3197 1667.7 61.0612V95.4082C1669.81 95.1088 1672.28 94.8843 1675.14 94.7347C1678.14 94.4354 1681.68 94.2857 1685.73 94.2857C1695.35 94.2857 1703.69 95.483 1710.75 97.8775C1717.96 100.122 1723.52 103.639 1727.43 108.429C1731.48 113.218 1733.51 119.354 1733.51 126.837C1733.51 134.918 1731.18 141.728 1726.53 147.265C1722.02 152.803 1715.63 156.993 1707.37 159.837C1699.1 162.531 1689.49 163.878 1678.52 163.878H1617.44ZM1675.14 160.286C1681.75 160.286 1686.93 157.667 1690.69 152.429C1694.45 147.19 1696.32 138.959 1696.32 127.735C1696.32 117.558 1694.45 110.15 1690.69 105.51C1686.93 100.871 1682.28 98.551 1676.72 98.551C1675.06 98.551 1673.41 98.6258 1671.76 98.7755C1670.26 98.9252 1668.9 99.0748 1667.7 99.2245V160.061C1668.9 160.211 1670.03 160.286 1671.08 160.286C1672.28 160.286 1673.64 160.286 1675.14 160.286ZM1736.22 163.878V161.184L1743.65 160.51C1746.06 160.211 1747.64 159.463 1748.39 158.265C1749.14 156.918 1749.51 154.449 1749.51 150.857V60.6122C1749.51 57.0204 1749.14 54.551 1748.39 53.2041C1747.64 51.8571 1746.06 51.1088 1743.65 50.9592L1736.22 50.0612V47.5918H1800V50.2857L1792.11 50.9592C1789.26 51.2585 1787.38 52.0068 1786.48 53.2041C1785.58 54.4014 1785.12 56.8707 1785.12 60.6122V150.857C1785.12 154.449 1785.58 156.918 1786.48 158.265C1787.38 159.463 1789.26 160.211 1792.11 160.51L1800 161.184V163.878H1736.22Z" fill="white"/>
<path d="M1599.06 197.775L1597.04 186.326C1595.83 180.041 1594.11 175.252 1591.85 171.959C1589.6 168.816 1586.29 166.646 1581.94 165.449C1577.73 164.401 1571.79 163.878 1564.13 163.878H1512.52C1505.01 163.878 1499.15 164.401 1494.94 165.449C1490.73 166.646 1487.58 168.891 1485.47 172.184C1483.37 175.476 1481.64 180.19 1480.29 186.326L1478.26 198H1474.88V160.51H1490.43C1496.14 151.082 1500.2 141.204 1502.6 130.878C1505.16 120.551 1506.66 110 1507.11 99.2245C1507.71 88.2993 1508.01 77.2245 1508.01 66C1508.01 61.3605 1507.64 57.9932 1506.88 55.8979C1506.28 53.6531 1504.71 52.3061 1502.15 51.8571L1493.81 50.2857V47.5918H1600.42V50.2857L1592.3 50.9592C1589.6 51.2585 1587.8 52.0068 1586.89 53.2041C1585.99 54.4014 1585.54 56.8707 1585.54 60.6122V160.061H1602.45V196.878L1599.06 197.775ZM1495.84 160.51L1549.71 160.061V51.1837H1512.97C1512.97 55.9728 1512.89 61.2857 1512.74 67.1224C1512.74 72.9592 1512.59 78.9456 1512.29 85.0816C1512.14 91.068 1511.77 96.9796 1511.17 102.816C1510.72 108.503 1510.11 113.741 1509.36 118.531C1508.61 124.367 1507.56 129.605 1506.21 134.245C1505.01 138.884 1503.5 143.299 1501.7 147.49C1500.05 151.531 1498.09 155.871 1495.84 160.51Z" fill="white"/>
<path d="M1345.46 163.878V161.184L1355.83 160.51C1358.68 160.361 1360.56 159.463 1361.46 157.816C1362.36 156.17 1362.81 153.027 1362.81 148.388V13.2449C1362.81 9.5034 1362.29 6.95918 1361.24 5.61224C1360.33 4.11564 1358.23 3.29251 1354.92 3.14285L1345.46 2.69387V0H1454.77L1461.08 40.1837L1458.15 41.0816C1455.14 33.1497 1452.21 26.7891 1449.36 22C1446.65 17.0612 1443.72 13.2449 1440.57 10.551C1437.41 7.85714 1433.81 6.06122 1429.75 5.16326C1425.84 4.11564 1421.11 3.59183 1415.55 3.59183H1400.45V78.1224H1417.36C1421.41 78.1224 1424.57 77.5986 1426.82 76.551C1429.07 75.3537 1430.88 73.1837 1432.23 70.0408C1433.73 66.8979 1435.24 62.4081 1436.74 56.5714L1439.89 56.1224V104.388L1436.74 104.837C1435.54 98.8503 1434.18 94.2109 1432.68 90.9183C1431.18 87.6258 1429.23 85.3061 1426.82 83.9592C1424.57 82.4626 1421.49 81.7143 1417.58 81.7143H1400.45V160.286H1421.41C1426.82 160.286 1431.4 159.762 1435.16 158.714C1438.92 157.517 1442.22 155.571 1445.08 152.878C1448.08 150.034 1450.86 146.143 1453.42 141.204C1456.12 136.116 1458.9 129.68 1461.76 121.898H1464.69L1460.85 163.878H1345.46Z" fill="white"/>
<path d="M1172.47 166.571C1166.31 166.571 1160.83 165.524 1156.02 163.429C1151.36 161.333 1147.23 158.116 1143.62 153.775L1144.97 151.531C1146.18 152.429 1147.3 153.102 1148.35 153.551C1149.41 153.85 1150.68 154 1152.19 154C1154.14 154 1155.87 153.551 1157.37 152.653C1158.87 151.605 1160.45 149.735 1162.1 147.041C1163.91 144.197 1166.01 139.932 1168.41 134.245C1170.37 129.755 1172.92 125.864 1176.08 122.571C1179.23 119.279 1183.14 116.585 1187.8 114.49C1192.45 112.395 1198.09 110.748 1204.7 109.551L1205.83 108.878C1197.26 108.578 1189.67 107.156 1183.06 104.612C1176.6 101.918 1171.57 98.4013 1167.96 94.0612C1164.36 89.5714 1162.55 84.483 1162.55 78.7959C1162.55 71.9116 1164.58 66.1497 1168.64 61.5102C1172.7 56.8707 1178.33 53.4286 1185.54 51.1837C1192.91 48.7891 1201.32 47.5918 1210.79 47.5918H1278.85V50.2857L1270.96 50.9592C1268.11 51.2585 1266.23 52.0068 1265.33 53.2041C1264.43 54.4014 1263.98 56.8707 1263.98 60.6122V150.857C1263.98 154.449 1264.43 156.918 1265.33 158.265C1266.23 159.463 1268.11 160.211 1270.96 160.51L1278.85 161.184V163.878H1215.07V161.184L1222.51 160.51C1224.91 160.211 1226.49 159.463 1227.24 158.265C1228.14 156.918 1228.59 154.449 1228.59 150.857V110.673C1227.69 110.673 1226.71 110.673 1225.66 110.673C1224.76 110.673 1223.71 110.748 1222.51 110.898C1221.45 110.898 1220.33 111.048 1219.12 111.347C1216.57 111.946 1214.39 113.218 1212.59 115.163C1210.79 117.109 1209.13 119.952 1207.63 123.694C1206.13 127.435 1204.47 132.374 1202.67 138.51C1200.42 146.293 1197.79 152.279 1194.78 156.469C1191.93 160.51 1188.62 163.204 1184.87 164.551C1181.26 165.898 1177.13 166.571 1172.47 166.571ZM1220.93 107.082H1228.59V51.6327C1227.69 51.3333 1226.56 51.1837 1225.21 51.1837C1223.86 51.034 1222.28 50.9592 1220.48 50.9592C1216.72 50.9592 1213.26 52.0816 1210.11 54.3265C1207.1 56.4218 1204.62 59.5646 1202.67 63.7551C1200.87 67.7959 1199.97 72.8095 1199.97 78.7959C1199.97 88.6735 1202 95.8571 1206.05 100.347C1210.26 104.837 1215.22 107.082 1220.93 107.082Z" fill="white"/>
<path d="M993.464 163.878V161.184L1002.48 160.286C1004.58 160.136 1006.01 159.388 1006.76 158.041C1007.51 156.694 1007.89 154.075 1007.89 150.184V61.2857C1007.89 57.3946 1007.51 54.7755 1006.76 53.4286C1006.01 52.0816 1004.58 51.3333 1002.48 51.1837L993.464 50.2857V47.5918H1057.02V50.0612L1048.68 51.1837C1046.58 51.483 1045.23 52.3061 1044.63 53.6531C1044.02 54.8503 1043.72 57.3197 1043.72 61.0612V134.694L1084.07 68.6939V60.6122C1084.07 57.0204 1083.69 54.551 1082.94 53.2041C1082.19 51.8571 1080.54 51.1088 1077.98 50.9592L1070.77 50.0612V47.5918H1134.55V50.2857L1126.66 50.9592C1123.81 51.2585 1121.93 52.0068 1121.03 53.2041C1120.13 54.4014 1119.68 56.8707 1119.68 60.6122V150.857C1119.68 154.449 1120.13 156.918 1121.03 158.265C1121.93 159.463 1123.81 160.211 1126.66 160.51L1134.55 161.184V163.878H1070.77V161.184L1077.98 160.51C1080.54 160.211 1082.19 159.463 1082.94 158.265C1083.69 156.918 1084.07 154.449 1084.07 150.857V75.8775L1043.72 142.102V150.408C1043.72 154.15 1044.02 156.694 1044.63 158.041C1045.23 159.238 1046.58 159.986 1048.68 160.286L1057.02 161.184V163.878H993.464Z" fill="white"/>
<path d="M875.492 163.878V161.184L884.507 160.286C886.61 160.136 888.038 159.388 888.789 158.041C889.54 156.694 889.916 154.075 889.916 150.184V61.2857C889.916 57.3946 889.54 54.7755 888.789 53.4286C888.038 52.0816 886.61 51.3333 884.507 51.1837L875.492 50.2857V47.5918H973.983L979.843 89.7959L976.462 90.6939L971.278 75.8775C969.175 69.5918 966.62 64.6531 963.615 61.0612C960.761 57.4694 957.23 54.9252 953.022 53.4286C948.815 51.932 943.707 51.1837 937.697 51.1837H925.751V150.408C925.751 153.551 926.127 155.796 926.878 157.143C927.78 158.49 929.358 159.313 931.611 159.612L946.937 161.184V163.878H875.492Z" fill="white"/>
<path d="M795.262 167.02C783.091 167.02 772.423 164.775 763.258 160.286C754.092 155.646 746.955 148.986 741.846 140.306C736.888 131.476 734.409 120.85 734.409 108.429C734.409 94.6598 737.038 83.0612 742.297 73.6326C747.706 64.0544 755.219 56.7959 764.835 51.8571C774.602 46.9184 786.021 44.449 799.093 44.449C810.963 44.449 821.331 46.6939 830.195 51.1837C839.211 55.5238 846.197 62.034 851.156 70.7143C856.114 79.3945 858.593 90.0952 858.593 102.816C858.593 115.986 855.964 127.435 850.705 137.163C845.596 146.741 838.309 154.15 828.843 159.388C819.377 164.476 808.183 167.02 795.262 167.02ZM798.868 163.204C803.826 163.204 807.883 161.558 811.038 158.265C814.344 154.823 816.748 149.061 818.25 140.98C819.753 132.898 820.504 121.748 820.504 107.531C820.504 96.1564 819.903 86.653 818.701 79.0204C817.649 71.3877 815.996 65.3265 813.743 60.8367C811.639 56.3469 809.01 53.1292 805.854 51.1837C802.849 49.2381 799.393 48.2653 795.487 48.2653C790.378 48.2653 786.096 49.9115 782.64 53.2041C779.184 56.4966 776.63 62.034 774.977 69.8163C773.325 77.449 772.498 88.0748 772.498 101.694C772.498 117.258 773.55 129.531 775.653 138.51C777.907 147.49 780.987 153.85 784.894 157.592C788.951 161.333 793.609 163.204 798.868 163.204Z" fill="white"/>
<path d="M598.668 166.796C593.259 166.796 588.676 165.075 584.92 161.633C581.314 158.041 579.511 153.775 579.511 148.837C579.511 145.095 580.262 141.878 581.765 139.184C583.267 136.34 585.221 134.095 587.625 132.449C590.179 130.803 592.733 129.98 595.288 129.98C599.645 129.98 603.552 131.775 607.007 135.367C610.613 138.959 613.619 143.15 616.023 147.939C617.375 145.544 618.427 143 619.178 140.306C620.079 137.612 620.756 135.068 621.206 132.673C622.258 128.034 623.16 122.796 623.911 116.959C624.662 111.122 625.263 105.136 625.714 99C626.165 92.8639 626.465 86.9524 626.615 81.2653C626.916 75.4286 627.066 70.3401 627.066 66C627.066 61.3605 626.691 57.9932 625.939 55.8979C625.338 53.6531 623.761 52.3061 621.206 51.8571L612.642 50.2857V47.5918H718.12V50.2857L710.232 50.9592C707.377 51.2585 705.499 52.0068 704.597 53.2041C703.695 54.4014 703.245 56.8707 703.245 60.6122V150.857C703.245 154.449 703.695 156.918 704.597 158.265C705.499 159.463 707.377 160.211 710.232 160.51L718.12 161.184V163.878H654.337V161.184L661.775 160.51C664.179 160.211 665.757 159.463 666.508 158.265C667.259 156.918 667.635 154.449 667.635 150.857V51.1837H631.799C631.799 55.9728 631.724 61.2857 631.574 67.1224C631.574 72.8095 631.424 78.6463 631.123 84.6326C630.973 90.619 630.672 96.5306 630.221 102.367C629.921 108.204 629.47 113.667 628.869 118.755C628.118 124.891 626.991 130.878 625.489 136.714C623.986 142.401 622.033 147.565 619.629 152.204C617.375 156.694 614.445 160.286 610.839 162.98C607.383 165.524 603.326 166.796 598.668 166.796Z" fill="white"/>
<path d="M510.455 167.02C498.284 167.02 487.616 164.775 478.451 160.286C469.285 155.646 462.148 148.986 457.04 140.306C452.081 131.476 449.602 120.85 449.602 108.429C449.602 94.6598 452.232 83.0612 457.49 73.6326C462.9 64.0544 470.412 56.7959 480.028 51.8571C489.795 46.9184 501.214 44.449 514.286 44.449C526.156 44.449 536.524 46.6939 545.389 51.1837C554.404 55.5238 561.391 62.034 566.349 70.7143C571.307 79.3945 573.787 90.0952 573.787 102.816C573.787 115.986 571.157 127.435 565.898 137.163C560.79 146.741 553.502 154.15 544.036 159.388C534.57 164.476 523.377 167.02 510.455 167.02ZM514.061 163.204C519.019 163.204 523.076 161.558 526.231 158.265C529.537 154.823 531.941 149.061 533.444 140.98C534.946 132.898 535.697 121.748 535.697 107.531C535.697 96.1564 535.096 86.653 533.894 79.0204C532.843 71.3877 531.19 65.3265 528.936 60.8367C526.832 56.3469 524.203 53.1292 521.048 51.1837C518.043 49.2381 514.587 48.2653 510.68 48.2653C505.572 48.2653 501.289 49.9115 497.833 53.2041C494.378 56.4966 491.823 62.034 490.171 69.8163C488.518 77.449 487.691 88.0748 487.691 101.694C487.691 117.258 488.743 129.531 490.847 138.51C493.1 147.49 496.181 153.85 500.087 157.592C504.144 161.333 508.802 163.204 514.061 163.204Z" fill="white"/>
<path d="M381.608 167.02C369.888 167.02 359.746 164.775 351.181 160.286C342.617 155.646 336.006 148.912 331.348 140.082C326.84 131.252 324.586 120.551 324.586 107.98C324.586 94.3605 327.291 82.8367 332.7 73.4081C338.259 63.9796 345.622 56.7959 354.787 51.8571C364.103 46.9184 374.546 44.449 386.115 44.449C395.882 44.449 404.296 46.17 411.358 49.6122C418.57 53.0544 424.129 57.9932 428.036 64.4286C431.943 70.8639 433.896 78.4217 433.896 87.102C433.896 89.0476 433.821 90.9932 433.671 92.9388C433.671 94.8843 433.595 96.9047 433.445 99H361.774C361.624 109.027 362.751 117.483 365.155 124.367C367.709 131.102 371.541 136.19 376.649 139.633C381.758 143.075 387.993 144.796 395.356 144.796C401.667 144.796 407.752 143.898 413.612 142.102C419.472 140.156 425.707 136.415 432.318 130.878L434.572 132.449C429.313 143.524 422.176 152.054 413.161 158.041C404.296 164.027 393.778 167.02 381.608 167.02ZM361.774 95.4081H399.187C399.488 93.1632 399.638 90.9183 399.638 88.6734C399.788 86.2789 399.863 83.8843 399.863 81.4898C399.863 69.3673 398.586 60.8367 396.032 55.8979C393.628 50.8095 389.721 48.2653 384.312 48.2653C380.105 48.2653 376.424 49.6122 373.269 52.3061C370.113 55 367.559 59.7891 365.606 66.6734C363.652 73.4081 362.375 82.9864 361.774 95.4081Z" fill="white"/>
<path d="M306.209 197.775L304.181 186.326C302.979 180.041 301.251 175.252 298.997 171.959C296.743 168.816 293.438 166.646 289.08 165.449C284.873 164.401 278.938 163.878 271.275 163.878H219.663C212.15 163.878 206.29 164.401 202.083 165.449C197.876 166.646 194.721 168.891 192.617 172.184C190.514 175.476 188.786 180.19 187.434 186.326L185.405 198H182.025V160.51H197.576C203.285 151.082 207.342 141.204 209.746 130.878C212.301 120.551 213.803 110 214.254 99.2245C214.855 88.2993 215.155 77.2245 215.155 66C215.155 61.3605 214.78 57.9932 214.029 55.8979C213.428 53.6531 211.85 52.3061 209.296 51.8571L200.956 50.2857V47.5918H307.561V50.2857L299.448 50.9592C296.743 51.2585 294.94 52.0068 294.039 53.2041C293.137 54.4014 292.686 56.8707 292.686 60.6122V160.061H309.59V196.878L306.209 197.775ZM202.985 160.51L256.851 160.061V51.1837H220.114C220.114 55.9728 220.039 61.2857 219.888 67.1224C219.888 72.9592 219.738 78.9456 219.438 85.0816C219.287 91.068 218.912 96.9796 218.311 102.816C217.86 108.503 217.259 113.741 216.508 118.531C215.756 124.367 214.705 129.605 213.352 134.245C212.15 138.884 210.648 143.299 208.845 147.49C207.192 151.531 205.239 155.871 202.985 160.51Z" fill="white"/>
<path d="M0 163.878V161.184L11.0436 160.51C13.8985 160.211 15.7766 159.163 16.6781 157.367C17.5797 155.422 18.0304 152.204 18.0304 147.714V13.2449C18.0304 9.35374 17.5045 6.65986 16.4528 5.16326C15.5512 3.66667 13.5228 2.91837 10.3675 2.91837L0 2.69387V0H73.0232V2.69387L61.5288 2.91837C58.8243 2.91837 56.9461 3.96599 55.8943 6.06122C54.9928 8.00679 54.542 11 54.542 15.0408V129.755L115.395 30.5306V13.2449C115.395 9.65306 114.944 7.03401 114.042 5.38775C113.141 3.7415 111.113 2.91837 107.957 2.91837L97.3643 2.69387V0H169.711V2.69387L158.893 2.91837C156.038 2.91837 154.16 3.89115 153.259 5.83672C152.357 7.7823 151.906 10.8503 151.906 15.0408V149.286C151.906 153.327 152.357 156.17 153.259 157.816C154.16 159.313 156.189 160.211 159.344 160.51L169.711 161.184V163.878H97.3643V161.184L108.408 160.51C111.263 160.211 113.141 159.163 114.042 157.367C114.944 155.422 115.395 152.204 115.395 147.714V37.2653L54.542 136.939V149.286C54.542 153.626 55.0679 156.544 56.1197 158.041C57.1715 159.388 59.1248 160.211 61.9796 160.51L73.0232 161.184V163.878H0Z" fill="white"/>
</svg>
