<svg width="320" height="107" viewBox="0 0 320 107" fill="none" xmlns="http://www.w3.org/2000/svg">
<path d="M171.343 98.4106V97.7325L173.608 97.5064C174.137 97.4687 174.495 97.2804 174.684 96.9413C174.873 96.6023 174.967 95.943 174.967 94.9635V72.5857C174.967 71.6062 174.873 70.947 174.684 70.6079C174.495 70.2689 174.137 70.0805 173.608 70.0428L171.343 69.8168V69.1387H187.313V69.7603L185.218 70.0428C184.689 70.1182 184.35 70.3254 184.199 70.6644C184.047 70.9658 183.972 71.5874 183.972 72.5292V81.1752C184.501 81.0998 185.123 81.0433 185.841 81.0057C186.596 80.9303 187.483 80.8926 188.503 80.8926C190.919 80.8926 193.014 81.194 194.789 81.7968C196.601 82.3619 197.998 83.2472 198.98 84.4527C199.999 85.6583 200.509 87.2029 200.509 89.0865C200.509 91.1208 199.924 92.835 198.753 94.2289C197.62 95.6228 196.016 96.6776 193.939 97.3934C191.863 98.0715 189.446 98.4106 186.69 98.4106H171.343ZM185.841 97.5064C187.502 97.5064 188.805 96.8471 189.748 95.5286C190.692 94.21 191.164 92.138 191.164 89.3125C191.164 86.7508 190.692 84.886 189.748 83.7181C188.805 82.5502 187.634 81.9663 186.237 81.9663C185.822 81.9663 185.407 81.9852 184.991 82.0228C184.614 82.0605 184.274 82.0982 183.972 82.1358V97.4499C184.274 97.4876 184.557 97.5064 184.821 97.5064C185.124 97.5064 185.463 97.5064 185.841 97.5064ZM201.188 98.4106V97.7325L203.057 97.5629C203.661 97.4876 204.058 97.2992 204.246 96.9978C204.435 96.6588 204.53 96.0372 204.53 95.133V72.4162C204.53 71.5121 204.435 70.8905 204.246 70.5514C204.058 70.2123 203.661 70.024 203.057 69.9863L201.188 69.7603V69.1387H217.215V69.8168L215.233 69.9863C214.516 70.0617 214.044 70.25 213.817 70.5514C213.591 70.8528 213.478 71.4744 213.478 72.4162V95.133C213.478 96.0372 213.591 96.6588 213.817 96.9978C214.044 97.2992 214.516 97.4876 215.233 97.5629L217.215 97.7325V98.4106H201.188Z" fill="white"/>
<path d="M166.725 106.943L166.215 104.062C165.913 102.479 165.479 101.274 164.913 100.445C164.347 99.6538 163.516 99.1075 162.421 98.8061C161.364 98.5424 159.873 98.4106 157.947 98.4106H144.978C143.09 98.4106 141.618 98.5424 140.561 98.8061C139.504 99.1075 138.711 99.6726 138.182 100.501C137.654 101.33 137.219 102.517 136.88 104.062L136.37 107H135.521V97.5629H139.428C140.863 95.1895 141.882 92.7031 142.486 90.1037C143.128 87.5042 143.506 84.8483 143.619 82.1358C143.77 79.3857 143.846 76.5979 143.846 73.7724C143.846 72.6046 143.751 71.7569 143.562 71.2295C143.411 70.6644 143.015 70.3254 142.373 70.2124L140.278 69.8168V69.1387H167.065V69.8168L165.026 69.9863C164.347 70.0617 163.894 70.25 163.667 70.5514C163.44 70.8528 163.327 71.4744 163.327 72.4162V97.4499H167.575V106.717L166.725 106.943ZM140.787 97.5629L154.323 97.4499V70.0428H145.091C145.091 71.2484 145.073 72.5857 145.035 74.055C145.035 75.5242 144.997 77.0312 144.922 78.5758C144.884 80.0827 144.789 81.5707 144.638 83.04C144.525 84.4716 144.374 85.7901 144.185 86.9957C143.997 88.4649 143.732 89.7834 143.392 90.9513C143.09 92.1192 142.713 93.2305 142.26 94.2854C141.844 95.3026 141.354 96.3951 140.787 97.5629Z" fill="white"/>
<path d="M103 98.4106V97.7325L105.605 97.5629C106.322 97.5252 106.794 97.2992 107.021 96.8848C107.247 96.4704 107.361 95.6793 107.361 94.5114V60.4927C107.361 59.5509 107.229 58.9105 106.964 58.5714C106.738 58.1947 106.209 57.9875 105.379 57.9498L103 57.8368V57.1587H130.467L132.053 67.2739L131.316 67.4999C130.561 65.5032 129.825 63.9021 129.108 62.6966C128.428 61.4534 127.692 60.4927 126.899 59.8146C126.106 59.1365 125.2 58.6844 124.181 58.4584C123.199 58.1947 122.01 58.0628 120.613 58.0628H116.818V76.824H121.066C122.085 76.824 122.878 76.6921 123.444 76.4284C124.011 76.127 124.464 75.5807 124.804 74.7896C125.181 73.9985 125.559 72.8683 125.936 71.399L126.729 71.286V83.4356L125.936 83.5486C125.634 82.0417 125.294 80.8738 124.917 80.045C124.539 79.2162 124.049 78.6323 123.444 78.2932C122.878 77.9165 122.104 77.7281 121.122 77.7281H116.818V97.5064H122.085C123.444 97.5064 124.596 97.3746 125.54 97.1108C126.484 96.8095 127.314 96.3197 128.032 95.6416C128.787 94.9258 129.485 93.9463 130.127 92.7031C130.807 91.4222 131.505 89.8023 132.223 87.8433H132.959L131.996 98.4106H103Z" fill="white"/>
<path d="M293.381 41.7546C291.84 41.7546 290.467 41.492 289.264 40.9667C288.099 40.4415 287.065 39.6349 286.163 38.547L286.501 37.9843C286.802 38.2094 287.084 38.3782 287.347 38.4907C287.61 38.5658 287.93 38.6033 288.306 38.6033C288.794 38.6033 289.227 38.4907 289.603 38.2656C289.979 38.003 290.373 37.5341 290.787 36.8588C291.238 36.146 291.765 35.0768 292.366 33.6513C292.855 32.5258 293.494 31.5504 294.284 30.7251C295.073 29.8997 296.051 29.2244 297.216 28.6992C298.382 28.174 299.792 27.7613 301.446 27.4612L301.728 27.2924C299.585 27.2174 297.686 26.861 296.032 26.2232C294.415 25.5479 293.156 24.6663 292.253 23.5784C291.351 22.4529 290.9 21.1774 290.9 19.7518C290.9 18.0261 291.407 16.5818 292.422 15.4188C293.438 14.2558 294.848 13.393 296.652 12.8302C298.494 12.23 300.6 11.9299 302.968 11.9299H320V12.6052L318.026 12.774C317.312 12.849 316.842 13.0366 316.616 13.3367C316.391 13.6368 316.278 14.2558 316.278 15.1937V37.8155C316.278 38.7158 316.391 39.3348 316.616 39.6725C316.842 39.9726 317.312 40.1602 318.026 40.2352L320 40.404V41.0793H304.04V40.404L305.901 40.2352C306.503 40.1602 306.897 39.9726 307.085 39.6725C307.311 39.3348 307.424 38.7158 307.424 37.8155V27.7426C307.198 27.7426 306.954 27.7426 306.691 27.7426C306.465 27.7426 306.202 27.7613 305.901 27.7989C305.638 27.7989 305.356 27.8364 305.055 27.9114C304.416 28.0615 303.871 28.3803 303.42 28.868C302.968 29.3557 302.555 30.0685 302.179 31.0064C301.803 31.9443 301.389 33.1823 300.938 34.7204C300.374 36.6712 299.716 38.1718 298.964 39.2223C298.25 40.2352 297.423 40.9105 296.483 41.2481C295.581 41.5857 294.547 41.7546 293.381 41.7546ZM305.506 26.8422H307.424V12.9428C307.198 12.8678 306.916 12.8302 306.578 12.8302C306.239 12.7927 305.845 12.774 305.393 12.774C304.454 12.774 303.589 13.0553 302.799 13.6181C302.047 14.1433 301.427 14.9311 300.938 15.9815C300.487 16.9944 300.262 18.2512 300.262 19.7518C300.262 22.2278 300.769 24.0286 301.784 25.154C302.837 26.2795 304.078 26.8422 305.506 26.8422Z" fill="white"/>
<path d="M248.589 41.0793V40.404L250.845 40.1789C251.372 40.1414 251.729 39.9538 251.917 39.6162C252.105 39.2785 252.199 38.622 252.199 37.6466V15.3625C252.199 14.3871 252.105 13.7306 251.917 13.393C251.729 13.0553 251.372 12.8678 250.845 12.8302L248.589 12.6052V11.9299H264.493V12.5489L262.406 12.8302C261.88 12.9053 261.542 13.1116 261.391 13.4492C261.241 13.7494 261.166 14.3684 261.166 15.3063V33.7638L271.26 17.2195V15.1937C271.26 14.2933 271.166 13.6743 270.978 13.3367C270.79 12.9991 270.377 12.8115 269.738 12.774L267.933 12.5489V11.9299H283.893V12.6052L281.919 12.774C281.205 12.849 280.735 13.0366 280.509 13.3367C280.284 13.6368 280.171 14.2558 280.171 15.1937V37.8155C280.171 38.7158 280.284 39.3348 280.509 39.6725C280.735 39.9726 281.205 40.1602 281.919 40.2352L283.893 40.404V41.0793H267.933V40.404L269.738 40.2352C270.377 40.1602 270.79 39.9726 270.978 39.6725C271.166 39.3348 271.26 38.7158 271.26 37.8155V19.0203L261.166 35.6208V37.7029C261.166 38.6408 261.241 39.2785 261.391 39.6162C261.542 39.9163 261.88 40.1039 262.406 40.1789L264.493 40.404V41.0793H248.589Z" fill="white"/>
<path d="M219.07 41.0793V40.404L221.326 40.1789C221.852 40.1414 222.209 39.9538 222.397 39.6162C222.585 39.2785 222.679 38.622 222.679 37.6466V15.3625C222.679 14.3871 222.585 13.7306 222.397 13.393C222.209 13.0553 221.852 12.8678 221.326 12.8302L219.07 12.6052V11.9299H243.715L245.181 22.5092L244.335 22.7343L243.038 19.0203C242.512 17.4446 241.872 16.2066 241.12 15.3063C240.406 14.4059 239.523 13.7681 238.47 13.393C237.417 13.0178 236.139 12.8302 234.635 12.8302H231.646V37.7029C231.646 38.4907 231.74 39.0535 231.928 39.3911C232.154 39.7287 232.548 39.9351 233.112 40.0101L236.947 40.404V41.0793H219.07Z" fill="white"/>
<path d="M198.994 41.8671C195.949 41.8671 193.279 41.3044 190.986 40.1789C188.693 39.0159 186.907 37.3465 185.628 35.1706C184.388 32.9572 183.767 30.2936 183.767 27.1799C183.767 23.7284 184.425 20.821 185.741 18.4575C187.095 16.0566 188.974 14.2371 191.381 12.9991C193.825 11.7611 196.682 11.1421 199.953 11.1421C202.923 11.1421 205.517 11.7048 207.735 12.8302C209.991 13.9182 211.74 15.5501 212.98 17.726C214.221 19.9019 214.841 22.5842 214.841 25.773C214.841 29.0744 214.183 31.9443 212.867 34.3828C211.589 36.7838 209.766 38.6408 207.397 39.9538C205.028 41.2293 202.227 41.8671 198.994 41.8671ZM199.896 40.9105C201.137 40.9105 202.152 40.4978 202.942 39.6725C203.769 38.8096 204.371 37.3653 204.747 35.3394C205.122 33.3136 205.31 30.5187 205.31 26.9548C205.31 24.1036 205.16 21.7214 204.859 19.8081C204.596 17.8948 204.183 16.3754 203.619 15.25C203.092 14.1245 202.434 13.3179 201.645 12.8302C200.893 12.3425 200.028 12.0987 199.051 12.0987C197.772 12.0987 196.701 12.5114 195.836 13.3367C194.971 14.162 194.332 15.5501 193.919 17.5009C193.505 19.4142 193.298 22.0778 193.298 25.4917C193.298 29.3933 193.561 32.4695 194.088 34.7204C194.652 36.9714 195.422 38.5658 196.4 39.5036C197.415 40.4415 198.581 40.9105 199.896 40.9105Z" fill="white"/>
<path d="M149.802 41.8108C148.448 41.8108 147.301 41.3794 146.361 40.5166C145.459 39.6162 145.008 38.547 145.008 37.309C145.008 36.3711 145.196 35.5645 145.572 34.8893C145.948 34.1765 146.437 33.6137 147.038 33.2011C147.677 32.7884 148.317 32.5821 148.956 32.5821C150.046 32.5821 151.024 33.0322 151.888 33.9326C152.791 34.833 153.543 35.8834 154.144 37.0839C154.482 36.4837 154.746 35.8459 154.934 35.1706C155.159 34.4953 155.328 33.8576 155.441 33.2573C155.704 32.0944 155.93 30.7813 156.118 29.3182C156.306 27.8551 156.456 26.3545 156.569 24.8164C156.682 23.2783 156.757 21.7964 156.795 20.3708C156.87 18.9077 156.908 17.6322 156.908 16.5443C156.908 15.3813 156.814 14.5372 156.626 14.012C156.475 13.4492 156.08 13.1116 155.441 12.9991L153.298 12.6052V11.9299H179.691V12.6052L177.718 12.774C177.003 12.849 176.533 13.0366 176.308 13.3367C176.082 13.6368 175.969 14.2558 175.969 15.1937V37.8155C175.969 38.7158 176.082 39.3348 176.308 39.6725C176.533 39.9726 177.003 40.1602 177.718 40.2352L179.691 40.404V41.0793H163.731V40.404L165.592 40.2352C166.194 40.1602 166.589 39.9726 166.777 39.6725C166.965 39.3348 167.059 38.7158 167.059 37.8155V12.8302H158.092C158.092 14.0307 158.073 15.3625 158.035 16.8256C158.035 18.2512 157.998 19.7143 157.923 21.2149C157.885 22.7155 157.81 24.1974 157.697 25.6605C157.622 27.1236 157.509 28.4929 157.359 29.7684C157.171 31.3065 156.889 32.8072 156.513 34.2703C156.137 35.6958 155.648 36.9901 155.046 38.1531C154.482 39.2785 153.749 40.1789 152.847 40.8542C151.982 41.492 150.967 41.8108 149.802 41.8108Z" fill="white"/>
<path d="M127.728 41.8671C124.683 41.8671 122.014 41.3044 119.72 40.1789C117.427 39.0159 115.641 37.3465 114.363 35.1706C113.122 32.9572 112.502 30.2936 112.502 27.1799C112.502 23.7284 113.16 20.821 114.475 18.4575C115.829 16.0566 117.709 14.2371 120.115 12.9991C122.559 11.7611 125.416 11.1421 128.687 11.1421C131.657 11.1421 134.252 11.7048 136.47 12.8302C138.726 13.9182 140.474 15.5501 141.715 17.726C142.955 19.9019 143.576 22.5842 143.576 25.773C143.576 29.0744 142.918 31.9443 141.602 34.3828C140.323 36.7838 138.5 38.6408 136.131 39.9538C133.763 41.2293 130.962 41.8671 127.728 41.8671ZM128.631 40.9105C129.871 40.9105 130.887 40.4978 131.676 39.6725C132.503 38.8096 133.105 37.3653 133.481 35.3394C133.857 33.3136 134.045 30.5187 134.045 26.9548C134.045 24.1036 133.894 21.7214 133.594 19.8081C133.33 17.8948 132.917 16.3754 132.353 15.25C131.827 14.1245 131.169 13.3179 130.379 12.8302C129.627 12.3425 128.762 12.0987 127.785 12.0987C126.507 12.0987 125.435 12.5114 124.57 13.3367C123.706 14.162 123.066 15.5501 122.653 17.5009C122.239 19.4142 122.032 22.0778 122.032 25.4917C122.032 29.3933 122.296 32.4695 122.822 34.7204C123.386 36.9714 124.157 38.5658 125.134 39.5036C126.149 40.4415 127.315 40.9105 128.631 40.9105Z" fill="white"/>
<path d="M95.4877 41.8671C92.5551 41.8671 90.0173 41.3044 87.8743 40.1789C85.7312 39.0159 84.0769 37.3277 82.9114 35.1143C81.7835 32.9009 81.2196 30.2186 81.2196 27.0673C81.2196 23.6534 81.8963 20.7647 83.2498 18.4013C84.6409 16.0378 86.4832 14.2371 88.7766 12.9991C91.1076 11.7611 93.7206 11.1421 96.6156 11.1421C99.0594 11.1421 101.165 11.5735 102.932 12.4363C104.737 13.2992 106.128 14.5372 107.105 16.1503C108.083 17.7635 108.571 19.658 108.571 21.8339C108.571 22.3216 108.553 22.8093 108.515 23.297C108.515 23.7847 108.496 24.2912 108.459 24.8164H90.5249C90.4873 27.3299 90.7692 29.4495 91.3708 31.1752C92.0099 32.8634 92.9687 34.1389 94.247 35.0018C95.5253 35.8647 97.0856 36.2961 98.9278 36.2961C100.507 36.2961 102.03 36.071 103.496 35.6208C104.962 35.1331 106.522 34.1952 108.177 32.8072L108.741 33.2011C107.425 35.9772 105.639 38.1156 103.383 39.6162C101.165 41.1168 98.5331 41.8671 95.4877 41.8671ZM90.5249 23.916H99.8866C99.9617 23.3533 99.9993 22.7906 99.9993 22.2278C100.037 21.6276 100.056 21.0273 100.056 20.4271C100.056 17.3884 99.7362 15.25 99.097 14.012C98.4955 12.7364 97.5179 12.0987 96.1644 12.0987C95.1117 12.0987 94.1906 12.4363 93.401 13.1116C92.6115 13.7869 91.9724 14.9874 91.4836 16.7131C90.9948 18.4013 90.6752 20.8022 90.5249 23.916Z" fill="white"/>
<path d="M76.6211 49.5765L76.1135 46.7066C75.8128 45.1309 75.3804 43.9305 74.8164 43.1051C74.2525 42.3173 73.4253 41.7733 72.335 41.4732C71.2823 41.2106 69.7972 41.0793 67.8798 41.0793H54.9651C53.0853 41.0793 51.619 41.2106 50.5663 41.4732C49.5136 41.7733 48.724 42.336 48.1976 43.1614C47.6713 43.9867 47.2389 45.1685 46.9006 46.7066L46.393 49.6328H45.5471V40.2352H49.4384C50.867 37.8717 51.8822 35.3957 52.4837 32.8072C53.1229 30.2186 53.4988 27.5738 53.6116 24.8727C53.762 22.134 53.8372 19.3579 53.8372 16.5443C53.8372 15.3813 53.7432 14.5372 53.5552 14.012C53.4049 13.4492 53.0101 13.1116 52.3709 12.9991L50.2843 12.6052V11.9299H76.9595V12.6052L74.9292 12.774C74.2525 12.849 73.8013 13.0366 73.5757 13.3367C73.3502 13.6368 73.2374 14.2558 73.2374 15.1937V40.1226H77.467V49.3514L76.6211 49.5765ZM50.7919 40.2352L64.2704 40.1226V12.8302H55.0779C55.0779 14.0307 55.0591 15.3625 55.0215 16.8256C55.0215 18.2887 54.9839 19.7893 54.9087 21.3275C54.8711 22.8281 54.7771 24.3099 54.6268 25.773C54.514 27.1986 54.3636 28.5116 54.1756 29.7121C53.9876 31.1752 53.7244 32.4883 53.3861 33.6513C53.0853 34.8142 52.7093 35.9209 52.2581 36.9714C51.8446 37.9843 51.3558 39.0722 50.7919 40.2352Z" fill="white"/>
<path d="M0 41.0793V40.404L2.76339 40.2352C3.47774 40.1602 3.9477 39.8976 4.17329 39.4474C4.39887 38.9597 4.51166 38.1531 4.51166 37.0276V3.32011C4.51166 2.34471 4.38007 1.66943 4.11689 1.29428C3.89131 0.919125 3.38374 0.731549 2.5942 0.731549L0 0.675274V0H18.2722V0.675274L15.396 0.731549C14.7193 0.731549 14.2493 0.994156 13.9861 1.51937C13.7606 2.00707 13.6478 2.75737 13.6478 3.77029V32.5258L28.8746 7.65313V3.32011C28.8746 2.41974 28.7618 1.76322 28.5362 1.35055C28.3107 0.937883 27.8031 0.731549 27.0136 0.731549L24.363 0.675274V0H42.466V0.675274L39.759 0.731549C39.0447 0.731549 38.5747 0.975398 38.3491 1.4631C38.1235 1.95079 38.0107 2.71986 38.0107 3.77029V37.4215C38.0107 38.4345 38.1235 39.1472 38.3491 39.5599C38.5747 39.9351 39.0822 40.1602 39.8718 40.2352L42.466 40.404V41.0793H24.363V40.404L27.1264 40.2352C27.8407 40.1602 28.3107 39.8976 28.5362 39.4474C28.7618 38.9597 28.8746 38.1531 28.8746 37.0276V9.34132L13.6478 34.3265V37.4215C13.6478 38.5095 13.7794 39.241 14.0425 39.6162C14.3057 39.9538 14.7945 40.1602 15.5088 40.2352L18.2722 40.404V41.0793H0Z" fill="white"/>
</svg>
