<svg width="51" height="50" viewBox="0 0 51 50" fill="none" xmlns="http://www.w3.org/2000/svg">
<g clip-path="url(#clip0_4151_2614)">
<g clip-path="url(#clip1_4151_2614)">
<path d="M29.7188 0.953125V8.88845H37.7422L29.7188 0.953125Z" fill="white"/>
<path d="M28.257 11.8199C27.4483 11.8199 26.7922 11.1638 26.7922 10.3551V0.101562H4.72265C2.29956 0.101562 0.328125 2.07338 0.328125 4.49609V42.5808C0.328125 45.0036 2.29956 46.975 4.72265 46.975H21.2208C21.4287 46.4272 20.987 47.2023 28.3547 35.2791V28.2754C25.3666 25.5994 27.256 20.6086 31.284 20.6086H38.6082V11.8199H28.257ZM9.61919 15.9356C10.1914 15.3638 11.1187 15.3638 11.6909 15.9356L12.8277 17.0724L15.5026 14.3975C16.0748 13.8253 17.0021 13.8253 17.5744 14.3975C18.1462 14.9693 18.1462 15.8971 17.5744 16.4689L13.8634 20.1798C13.2916 20.7516 12.3642 20.7516 11.792 20.1798L9.61919 18.007C9.04737 17.4351 9.04737 16.5074 9.61919 15.9356ZM9.61919 24.6266C10.1914 24.0548 11.1187 24.0548 11.6909 24.6266L12.8277 25.7634L15.5026 23.0885C16.0748 22.5167 17.0021 22.5167 17.5744 23.0885C18.1462 23.6603 18.1462 24.5881 17.5744 25.1599L13.8634 28.8708C13.2916 29.4427 12.3642 29.4427 11.792 28.8708L9.61919 26.698C9.04737 26.1262 9.04737 25.1988 9.61919 24.6266ZM17.6068 34.0138L13.8634 37.7572C13.2912 38.3294 12.3639 38.3294 11.792 37.7572L9.61919 35.5847C9.04737 35.0125 9.04737 34.0851 9.61919 33.5129C10.191 32.9411 11.1187 32.9411 11.6906 33.5129L12.8277 34.6501L15.5354 31.9424C16.1072 31.3702 17.035 31.3702 17.6068 31.9424C18.179 32.5142 18.179 33.442 17.6068 34.0138ZM25.3273 35.3543H22.3976C21.5889 35.3543 20.9328 34.6985 20.9328 33.8894C20.9328 33.0807 21.5889 32.4246 22.3976 32.4246H25.3273C26.1364 32.4246 26.7922 33.0807 26.7922 33.8894C26.7922 34.6985 26.1364 35.3543 25.3273 35.3543ZM25.3273 26.468H22.3976C21.5889 26.468 20.9328 25.8122 20.9328 25.0031C20.9328 24.194 21.5889 23.5383 22.3976 23.5383H25.3273C26.1364 23.5383 26.7922 24.194 26.7922 25.0031C26.7922 25.8122 26.1364 26.468 25.3273 26.468ZM28.257 17.6793H22.3976C21.5889 17.6793 20.9328 17.0232 20.9328 16.2144C20.9328 15.4053 21.5889 14.7496 22.3976 14.7496H28.257C29.0657 14.7496 29.7219 15.4053 29.7219 16.2144C29.7219 17.0232 29.0657 17.6793 28.257 17.6793Z" fill="white"/>
<path d="M31.2848 26.4609V36.1041L29.9725 38.2281H44.2181L42.9059 36.1041V26.4609C43.7146 26.4609 44.3703 25.8052 44.3703 24.9961C44.3703 24.187 43.7146 23.5312 42.9059 23.5312H31.2848C30.4761 23.5312 29.8203 24.187 29.8203 24.9961C29.8203 25.8052 30.4761 26.4609 31.2848 26.4609Z" fill="white"/>
<path d="M46.0264 41.1562H28.1599L24.0797 47.7591C23.4774 48.7345 24.1816 49.9937 25.326 49.9937H48.8603C50.007 49.9937 50.7078 48.7326 50.1066 47.7591L46.0264 41.1562Z" fill="white"/>
</g>
</g>
<defs>
<clipPath id="clip0_4151_2614">
<rect width="50" height="50" fill="white" transform="translate(0.328125)"/>
</clipPath>
<clipPath id="clip1_4151_2614">
<rect width="50" height="50" fill="white" transform="translate(0.328125)"/>
</clipPath>
</defs>
</svg>
