<svg width="51" height="50" viewBox="0 0 51 50" fill="none" xmlns="http://www.w3.org/2000/svg">
<g clip-path="url(#clip0_4151_2718)">
<path d="M34.6281 6.41819C34.5396 6.14773 34.3055 5.95306 34.022 5.91145L28.7114 5.14614L26.3366 0.378939C26.0846 -0.126313 25.243 -0.126313 24.9925 0.378939L22.6177 5.14614L17.3071 5.91145C17.025 5.95157 16.7895 6.14773 16.701 6.41819C16.6125 6.68716 16.686 6.98288 16.89 7.18052L20.7335 10.8912L19.8259 16.1294C19.7779 16.4088 19.8934 16.6911 20.1244 16.8561C20.3554 17.024 20.663 17.0478 20.9135 16.9126L25.663 14.4383L30.4141 16.9126C30.5236 16.9705 30.6436 16.9988 30.7621 16.9988C30.9181 16.9988 31.0727 16.9512 31.2032 16.8561C31.4342 16.6911 31.5497 16.4088 31.5017 16.1294L30.5941 10.8912L34.4375 7.18052C34.6416 6.98288 34.7151 6.68716 34.6281 6.41819Z" fill="white"/>
<path d="M25.6641 32.8125C29.1158 32.8125 31.9141 30.0143 31.9141 26.5625C31.9141 23.1107 29.1158 20.3125 25.6641 20.3125C22.2123 20.3125 19.4141 23.1107 19.4141 26.5625C19.4141 30.0143 22.2123 32.8125 25.6641 32.8125Z" fill="white"/>
<path d="M10.8203 28.125C13.4091 28.125 15.5078 26.0263 15.5078 23.4375C15.5078 20.8487 13.4091 18.75 10.8203 18.75C8.23148 18.75 6.13281 20.8487 6.13281 23.4375C6.13281 26.0263 8.23148 28.125 10.8203 28.125Z" fill="white"/>
<path d="M40.5078 28.125C43.0966 28.125 45.1953 26.0263 45.1953 23.4375C45.1953 20.8487 43.0966 18.75 40.5078 18.75C37.919 18.75 35.8203 20.8487 35.8203 23.4375C35.8203 26.0263 37.919 28.125 40.5078 28.125Z" fill="white"/>
<path d="M35.7337 45.2453L33.8618 36.8219C33.5446 35.3922 32.2759 34.375 30.8118 34.375H26.8321V43.2391C26.8321 43.8859 26.3071 44.4109 25.6603 44.4109C25.0134 44.4109 24.4884 43.8859 24.4884 43.2391V34.375H20.5087C19.0446 34.375 17.7759 35.3922 17.4587 36.8219L15.5868 45.2453C15.3275 46.4078 15.6071 47.6078 16.3525 48.5359C17.0978 49.4641 18.2087 49.9984 19.3993 49.9984H31.9212C33.1118 49.9984 34.2228 49.4656 34.9681 48.5359C35.7134 47.6063 35.9931 46.4078 35.7337 45.2453Z" fill="white"/>
<path d="M50.5766 40.5578L48.7047 32.1344C48.3875 30.7047 47.1188 29.6875 45.6547 29.6875H41.675V38.2172C41.675 38.8641 41.15 39.3891 40.5031 39.3891C39.8563 39.3891 39.3313 38.8641 39.3313 38.2172V29.6875H37.6813C35.7719 29.6875 34.1422 31.0672 33.8281 32.95L33.7891 33.1875C35.0187 34.0563 35.9344 35.3531 36.2844 36.9234L38.0203 44.7375C38.0625 44.9281 38.0578 45.1203 38.0828 45.3125H46.7641C47.9547 45.3125 49.0656 44.7797 49.8109 43.85C50.5563 42.9203 50.8359 41.7203 50.5766 40.5578Z" fill="white"/>
<path d="M16.8813 32.5734C16.4203 30.8703 14.875 29.6875 13.1109 29.6875H11.9875V38.2172C11.9875 38.8641 11.4625 39.3891 10.8156 39.3891C10.1688 39.3891 9.64376 38.8641 9.64376 38.2172V29.6875H5.66407C4.20001 29.6875 2.93126 30.7047 2.61407 32.1344L0.742199 40.5578C0.484386 41.7203 0.764074 42.9203 1.50939 43.85C2.2547 44.7797 3.36564 45.3125 4.55626 45.3125H13.2375C13.2625 45.1203 13.2563 44.9281 13.3 44.7375L15.0359 36.925C15.3469 35.5266 16.1031 34.3406 17.1313 33.4828L16.8813 32.5734Z" fill="white"/>
</g>
<defs>
<clipPath id="clip0_4151_2718">
<rect width="50" height="50" fill="white" transform="translate(0.664062)"/>
</clipPath>
</defs>
</svg>
