<svg width="185" height="26" viewBox="0 0 185 26" fill="none" xmlns="http://www.w3.org/2000/svg">
<path fill-rule="evenodd" clip-rule="evenodd" d="M2.18595 3.62782C4.82973 1.9758 9.03959 3.77893 12.3317 7.70028C15.6242 3.7787 19.8365 1.97561 22.4805 3.62782L23.024 4.03732C25.5472 6.31651 25.1393 11.8972 21.9521 16.9985L21.2942 17.9891C18.6306 21.7482 15.087 24.0206 12.276 23.9435C9.24353 23.9585 5.39434 21.2909 2.71288 17C-0.687404 11.5583 -0.923208 5.5713 2.18595 3.62782ZM21.1331 5.78223C20.6855 5.50293 19.6454 5.32257 17.8962 6.2625C16.5865 6.96635 15.1623 8.17552 13.8824 9.82158C13.9125 9.8688 13.9445 9.91549 13.9743 9.9631C16.0215 13.2396 16.9196 16.7131 16.633 19.3832C17.7378 18.4395 18.8388 17.1846 19.7962 15.6525C21.3054 13.2372 22.0428 10.8027 22.1177 8.9002C22.1955 6.91777 21.5802 6.06258 21.1331 5.78223ZM8.65222 16.0153C7.60513 15.7289 6.44618 15.863 5.45296 16.4836C5.83321 17.0919 6.34942 17.5646 6.93741 17.8852C8.17292 18.5588 9.72684 18.5648 11.0054 17.7663C10.4467 16.8723 9.59471 16.2732 8.65222 16.0153ZM12.2881 12.2139C11.2951 12.8345 10.665 13.8166 10.4634 14.8832C10.2822 15.8431 10.4469 16.8725 11.0054 17.7663C12.2838 16.9674 12.9599 15.5678 12.8963 14.162C12.8659 13.4933 12.6679 12.8221 12.2881 12.2139ZM9.3553 10.4479C9.04193 10.6689 8.79098 10.9493 8.60705 11.2624C8.12733 12.0796 8.10626 13.1296 8.64318 13.9889C8.10614 13.1294 7.15372 12.6872 6.20873 12.7604C5.84653 12.7885 5.48502 12.8931 5.14884 13.0781C5.21212 13.3598 5.32291 13.6368 5.48457 13.8956C5.5368 13.9791 5.5935 14.0594 5.65319 14.1349C6.44275 15.1339 7.85269 15.4266 8.98042 14.8064C9.023 14.783 9.06516 14.7572 9.10689 14.7311C9.14872 14.705 9.19049 14.6779 9.23034 14.6498C10.2823 13.9083 10.6368 12.5138 10.0855 11.3663C10.0437 11.2794 9.9962 11.1924 9.94396 11.1088C9.78207 10.8498 9.58107 10.6283 9.3553 10.4479ZM5.64566 9.19528C5.31989 9.80973 5.32137 10.5775 5.71642 11.2097C5.7465 11.2578 5.77793 11.305 5.81127 11.3497C6.216 11.8912 6.85278 12.1783 7.49446 12.1567C7.79551 11.5893 7.81733 10.8912 7.50801 10.2898C7.4825 10.2403 7.45523 10.1904 7.42521 10.1423C7.03008 9.50992 6.34087 9.1717 5.64566 9.19528Z" fill="#159F4A"/>
<path d="M41.1218 11.2616L35.4845 17.7314L35.42 19.6636L37.2058 19.9458L37.0983 21.1399H30.1484L30.256 19.9675L31.9989 19.707L32.5152 7.24515L30.7509 6.89778L30.8585 5.76884H37.7007L37.6147 6.91949L35.9364 7.24515L35.5491 15.6906L41.1864 9.22081L41.294 7.26686L39.6372 6.91949L39.7448 5.76884H46.544L46.4364 6.9412L44.6721 7.26686L44.1772 19.6636L46.1352 19.9458L46.0276 21.1399H39.0347L39.1423 19.9458L40.7561 19.6853L41.1218 11.2616Z" fill="#159F4A"/>
<path d="M48.9036 5.55173C49.4773 5.21883 50.0942 4.9366 50.754 4.70502C51.4282 4.45896 52.1167 4.33594 52.8196 4.33594C53.5942 4.33594 54.2683 4.48067 54.8421 4.77015C55.4159 5.05962 55.8964 5.4866 56.2837 6.05107C56.6854 6.61555 56.9794 7.31752 57.1659 8.157C57.3667 8.982 57.4671 9.93726 57.4671 11.0228C57.4671 12.2241 57.3882 13.3531 57.2304 14.4096C57.0727 15.4662 56.8288 16.4287 56.4989 17.2971C56.1833 18.1511 55.7817 18.8892 55.294 19.5116C54.8063 20.134 54.2397 20.6116 53.5942 20.9445C52.9487 21.2774 52.2243 21.4439 51.421 21.4439C50.546 21.4439 49.7786 21.2412 49.1187 20.836C48.4589 20.4162 47.9425 19.8156 47.5695 19.034C47.2109 18.2379 47.0316 17.2754 47.0316 16.1465C47.0316 15.2346 47.1392 14.3879 47.3544 13.6063C47.5695 12.8103 47.8851 12.1228 48.3011 11.5438C48.7314 10.9504 49.2622 10.4945 49.8933 10.1761C50.5388 9.84318 51.2919 9.67674 52.1526 9.67674C52.3964 9.67674 52.6474 9.70568 52.9056 9.76358C53.1782 9.807 53.4435 9.87213 53.7017 9.95897C53.9599 10.0313 54.1679 10.1182 54.3257 10.2195C54.3257 9.90108 54.3114 9.58989 54.2827 9.28595C54.2683 8.982 54.2397 8.69252 54.1966 8.41752C54.1392 7.80963 54.0245 7.32476 53.8524 6.96291C53.6946 6.60107 53.4794 6.34055 53.2069 6.18134C52.9343 6.02212 52.5901 5.94252 52.1741 5.94252C51.672 5.94252 51.1843 6.02212 50.711 6.18134C50.2376 6.34055 49.7786 6.53594 49.3339 6.76752L48.9036 5.55173ZM51.8728 20.0761C52.2171 20.0761 52.5183 19.8952 52.7765 19.5333C53.0491 19.1715 53.2858 18.6142 53.4866 17.8616C53.7017 17.0945 53.8811 16.1248 54.0245 14.9524C54.0962 14.33 54.1536 13.7294 54.1966 13.1504C54.2397 12.5715 54.2612 12.0215 54.2612 11.5004C54.1034 11.3991 53.9384 11.3195 53.7663 11.2616C53.5942 11.2037 53.422 11.1603 53.2499 11.1313C53.0778 11.0879 52.8913 11.0662 52.6905 11.0662C52.1741 11.0662 51.7366 11.305 51.378 11.7827C51.0337 12.2458 50.7683 12.8971 50.5819 13.7366C50.4097 14.5616 50.3237 15.5241 50.3237 16.6241C50.3237 17.2031 50.3595 17.7096 50.4312 18.1439C50.503 18.5636 50.6034 18.9182 50.7325 19.2077C50.8759 19.4971 51.0409 19.7142 51.2274 19.859C51.4138 20.0037 51.629 20.0761 51.8728 20.0761Z" fill="#159F4A"/>
<path d="M64.213 9.67674C65.418 9.67674 66.3288 9.93003 66.9456 10.4366C67.5624 10.9432 67.8708 11.6307 67.8708 12.4991C67.8708 13.0346 67.7704 13.4978 67.5696 13.8886C67.3688 14.2649 67.0747 14.5833 66.6874 14.8438C66.3145 15.1044 65.8698 15.336 65.3534 15.5386C64.8514 15.7267 64.2848 15.9077 63.6536 16.0813L61.5665 16.6024C61.6239 17.2682 61.7458 17.8327 61.9323 18.2958C62.1331 18.7445 62.4057 19.0919 62.7499 19.3379C63.1085 19.584 63.5173 19.707 63.9764 19.707C64.3206 19.707 64.6577 19.6491 64.9876 19.5333C65.3176 19.4031 65.6475 19.2294 65.9774 19.0123C66.3073 18.7807 66.6301 18.5129 66.9456 18.209L67.6772 19.2294C67.462 19.4899 67.1967 19.7504 66.8811 20.011C66.5799 20.2715 66.2284 20.5103 65.8268 20.7274C65.4251 20.9445 64.9948 21.1182 64.5358 21.2485C64.0768 21.3787 63.6034 21.4439 63.1157 21.4439C62.0973 21.4439 61.2151 21.234 60.4692 20.8143C59.7376 20.3945 59.1782 19.8011 58.7909 19.034C58.4036 18.2524 58.2099 17.3261 58.2099 16.255C58.2099 14.909 58.4538 13.7438 58.9415 12.7596C59.4436 11.7754 60.1393 11.0156 61.0286 10.48C61.9323 9.9445 62.9938 9.67674 64.213 9.67674ZM64.9016 12.4774C64.9016 12.159 64.8657 11.884 64.794 11.6524C64.7223 11.4208 64.6075 11.2399 64.4497 11.1096C64.2919 10.9794 64.0911 10.9142 63.8473 10.9142C63.4169 10.9142 63.0368 11.0734 62.7069 11.3919C62.3913 11.7103 62.1331 12.1952 61.9323 12.8465C61.7315 13.4833 61.6024 14.2866 61.545 15.2563L63.0081 14.8873C63.4385 14.7715 63.7899 14.6267 64.0624 14.4531C64.335 14.2794 64.543 14.0406 64.6864 13.7366C64.8298 13.4182 64.9016 12.9985 64.9016 12.4774Z" fill="#159F4A"/>
<path d="M73.7748 21.4656C72.6272 21.4656 71.6733 21.234 70.9131 20.7708C70.1672 20.3077 69.6077 19.6708 69.2348 18.8603C68.8618 18.0353 68.6754 17.08 68.6754 15.9945C68.6754 15.155 68.7829 14.3517 68.9981 13.5846C69.2133 12.8175 69.5504 12.1445 70.0094 11.5656C70.4827 10.9721 71.0924 10.509 71.8383 10.1761C72.5842 9.82871 73.4879 9.65502 74.5494 9.65502C75.6682 9.65502 76.6006 9.87937 77.3465 10.3281C78.1068 10.7623 78.6733 11.3846 79.0463 12.1952C79.4336 13.0057 79.6272 13.9754 79.6272 15.1044C79.6272 15.9294 79.5197 16.7254 79.3045 17.4925C79.1037 18.2452 78.7738 18.9254 78.3147 19.5333C77.8557 20.1267 77.2533 20.5971 76.5074 20.9445C75.7614 21.2919 74.8506 21.4656 73.7748 21.4656ZM73.9684 20.1412C74.6139 20.1412 75.0944 19.9096 75.41 19.4465C75.7256 18.9833 75.9408 18.3682 76.0555 17.6011C76.1703 16.834 76.2276 15.9945 76.2276 15.0827C76.2276 14.2432 76.1774 13.5195 76.077 12.9116C75.9766 12.2892 75.7901 11.8116 75.5176 11.4787C75.2451 11.1458 74.8434 10.9794 74.3127 10.9794C73.911 10.9794 73.5668 11.0879 73.2799 11.305C73.0073 11.5077 72.785 11.8188 72.6129 12.2386C72.4407 12.6583 72.3116 13.1866 72.2256 13.8235C72.1539 14.4603 72.118 15.2129 72.118 16.0813C72.118 16.9353 72.1754 17.6662 72.2901 18.2741C72.4049 18.882 72.5985 19.3452 72.8711 19.6636C73.1436 19.982 73.5094 20.1412 73.9684 20.1412Z" fill="#159F4A"/>
<path d="M82.0263 11.0011C82.3849 10.7406 82.8081 10.509 83.2958 10.3063C83.7835 10.1037 84.3286 9.9445 84.9311 9.82871C85.5479 9.71292 86.2292 9.65502 86.9751 9.65502C87.5489 9.65502 88.0796 9.71292 88.5673 9.82871C89.0694 9.9445 89.4997 10.0965 89.8583 10.2846C90.2169 10.4583 90.4536 10.6682 90.5684 10.9142L90.2456 18.9254C90.2313 19.2004 90.26 19.4103 90.3317 19.555C90.4034 19.6853 90.5397 19.7504 90.7405 19.7504C90.8983 19.7504 91.0632 19.7215 91.2354 19.6636C91.4219 19.5912 91.637 19.4971 91.8809 19.3814L92.2682 20.4886C92.0673 20.6189 91.7948 20.7564 91.4505 20.9011C91.1206 21.0458 90.7477 21.1689 90.3317 21.2702C89.93 21.386 89.5356 21.4439 89.1483 21.4439C88.4167 21.4439 87.8716 21.2412 87.513 20.836C87.1544 20.4307 87.0038 19.8373 87.0612 19.0557L87.513 11.8478C87.3122 11.7465 87.0253 11.6741 86.6524 11.6307C86.2794 11.5728 85.8993 11.5438 85.512 11.5438C85.4259 12.3109 85.304 13.107 85.1462 13.932C85.0028 14.757 84.8522 15.5386 84.6944 16.2767C84.5509 17.0004 84.4147 17.6083 84.2856 18.1004C83.9843 19.186 83.6185 20.0182 83.1882 20.5971C82.7579 21.1616 82.1985 21.4439 81.5099 21.4439C81.1513 21.4439 80.8357 21.3643 80.5632 21.205C80.305 21.0458 80.097 20.8432 79.9392 20.5971C79.7958 20.3366 79.7241 20.0616 79.7241 19.7721C79.7241 19.3958 79.8316 19.0485 80.0468 18.73C80.2763 18.3971 80.5489 18.1511 80.8644 17.9919L82.2415 19.0557C82.4423 18.8386 82.6144 18.5564 82.7579 18.209C82.9157 17.8616 83.0663 17.4274 83.2097 16.9064C83.2958 16.5879 83.3747 16.2261 83.4464 15.8208C83.5325 15.4156 83.6114 14.9813 83.6831 14.5182C83.7692 14.0406 83.8481 13.5557 83.9198 13.0636C83.9915 12.5715 84.0632 12.0794 84.1349 11.5873C83.8767 11.6017 83.5827 11.6452 83.2528 11.7175C82.9228 11.7899 82.636 11.884 82.3921 11.9998L82.0263 11.0011Z" fill="#159F4A"/>
<path d="M97.9657 21.4656C96.8181 21.4656 95.8642 21.234 95.104 20.7708C94.3581 20.3077 93.7986 19.6708 93.4257 18.8603C93.0527 18.0353 92.8663 17.08 92.8663 15.9945C92.8663 15.155 92.9738 14.3517 93.189 13.5846C93.4042 12.8175 93.7413 12.1445 94.2003 11.5656C94.6736 10.9721 95.2833 10.509 96.0292 10.1761C96.7751 9.82871 97.6788 9.65502 98.7402 9.65502C99.8591 9.65502 100.791 9.87937 101.537 10.3281C102.298 10.7623 102.864 11.3846 103.237 12.1952C103.624 13.0057 103.818 13.9754 103.818 15.1044C103.818 15.9294 103.711 16.7254 103.495 17.4925C103.295 18.2452 102.965 18.9254 102.506 19.5333C102.047 20.1267 101.444 20.5971 100.698 20.9445C99.9523 21.2919 99.0415 21.4656 97.9657 21.4656ZM98.1593 20.1412C98.8048 20.1412 99.2853 19.9096 99.6009 19.4465C99.9165 18.9833 100.132 18.3682 100.246 17.6011C100.361 16.834 100.419 15.9945 100.419 15.0827C100.419 14.2432 100.368 13.5195 100.268 12.9116C100.168 12.2892 99.981 11.8116 99.7085 11.4787C99.436 11.1458 99.0343 10.9794 98.5036 10.9794C98.1019 10.9794 97.7577 11.0879 97.4708 11.305C97.1982 11.5077 96.9759 11.8188 96.8038 12.2386C96.6316 12.6583 96.5025 13.1866 96.4165 13.8235C96.3448 14.4603 96.3089 15.2129 96.3089 16.0813C96.3089 16.9353 96.3663 17.6662 96.481 18.2741C96.5958 18.882 96.7894 19.3452 97.062 19.6636C97.3345 19.982 97.7003 20.1412 98.1593 20.1412Z" fill="#159F4A"/>
<path d="M104.871 11.4787C105.301 11.1458 105.775 10.8419 106.291 10.5669C106.808 10.2919 107.36 10.0748 107.948 9.91555C108.536 9.74187 109.153 9.65502 109.798 9.65502C110.401 9.65502 110.939 9.7491 111.412 9.93726C111.9 10.1109 112.28 10.3787 112.552 10.7406C112.839 11.0879 112.983 11.5221 112.983 12.0432C112.983 12.5063 112.847 12.9333 112.574 13.3241C112.316 13.7149 111.972 14.0912 111.541 14.4531C111.111 14.8149 110.638 15.1695 110.121 15.5169C109.648 15.8642 109.253 16.1899 108.938 16.4938C108.622 16.7833 108.385 17.0656 108.228 17.3406C108.07 17.6011 107.991 17.8761 107.991 18.1656C107.991 18.3971 108.041 18.6215 108.142 18.8386C108.256 19.0412 108.421 19.2149 108.636 19.3596C108.852 19.4899 109.117 19.555 109.433 19.555C109.834 19.555 110.272 19.4537 110.745 19.2511C111.233 19.034 111.792 18.73 112.423 18.3392L112.94 19.5116C112.38 19.9169 111.828 20.2715 111.283 20.5754C110.738 20.8649 110.186 21.082 109.626 21.2268C109.081 21.386 108.522 21.4656 107.948 21.4656C107.245 21.4656 106.635 21.3353 106.119 21.0748C105.617 20.7998 105.23 20.4452 104.957 20.011C104.699 19.5623 104.57 19.0919 104.57 18.5998C104.57 18.1366 104.692 17.7241 104.936 17.3623C105.18 16.986 105.517 16.6241 105.947 16.2767C106.392 15.9149 106.894 15.5458 107.453 15.1695C107.912 14.8366 108.285 14.5399 108.572 14.2794C108.859 14.0044 109.067 13.7294 109.196 13.4544C109.339 13.1794 109.411 12.8827 109.411 12.5642C109.411 12.2024 109.289 11.9202 109.045 11.7175C108.816 11.5149 108.543 11.4136 108.228 11.4136C107.998 11.4136 107.726 11.4642 107.41 11.5656C107.109 11.6669 106.786 11.8116 106.442 11.9998C106.112 12.1734 105.782 12.3761 105.452 12.6077L104.871 11.4787Z" fill="#159F4A"/>
<path d="M113.841 10.6754C114.085 10.5162 114.393 10.3642 114.766 10.2195C115.139 10.0603 115.527 9.93003 115.928 9.82871C116.344 9.72739 116.724 9.67674 117.069 9.67674C117.771 9.67674 118.288 9.86489 118.618 10.2412C118.962 10.6031 119.098 11.1313 119.027 11.8261L118.467 17.7965C118.424 18.332 118.431 18.7156 118.489 18.9471C118.56 19.1642 118.74 19.2728 119.027 19.2728C119.213 19.2728 119.371 19.2149 119.5 19.0991C119.643 18.9833 119.78 18.7735 119.909 18.4695C120.052 18.1656 120.203 17.7603 120.361 17.2537L122.641 9.98068H125.675L125.266 18.9689C125.252 19.2294 125.281 19.4248 125.352 19.555C125.424 19.6853 125.56 19.7504 125.761 19.7504C125.933 19.7504 126.12 19.7215 126.321 19.6636C126.536 19.5912 126.737 19.5044 126.923 19.4031L127.267 20.4886C127.11 20.6044 126.909 20.7202 126.665 20.836C126.421 20.9373 126.163 21.0386 125.89 21.1399C125.618 21.2268 125.345 21.2991 125.073 21.357C124.8 21.4149 124.542 21.4439 124.298 21.4439C123.581 21.4439 123.05 21.2268 122.706 20.7925C122.376 20.3583 122.254 19.7432 122.34 18.9471L123.05 13.2373L122.857 13.1938L121.329 18.1656C121.099 18.9327 120.827 19.555 120.511 20.0327C120.21 20.5103 119.844 20.8649 119.414 21.0965C118.998 21.3281 118.489 21.4439 117.886 21.4439C116.997 21.4439 116.33 21.1471 115.885 20.5537C115.441 19.9603 115.268 19.0629 115.369 17.8616L115.821 12.1517C115.849 11.8188 115.821 11.5945 115.735 11.4787C115.663 11.3484 115.527 11.2833 115.326 11.2833C115.154 11.2833 114.974 11.3195 114.788 11.3919C114.601 11.4498 114.415 11.5366 114.228 11.6524L113.841 10.6754Z" fill="#159F4A"/>
<path d="M134.385 16.0162C133.768 16.3636 133.237 16.6748 132.793 16.9498C132.348 17.2103 131.982 17.4564 131.695 17.6879C131.408 17.905 131.186 18.1077 131.028 18.2958C130.885 18.4695 130.799 18.6287 130.77 18.7735C130.698 18.9182 130.677 19.0485 130.706 19.1642C130.749 19.28 130.856 19.4031 131.028 19.5333L131.631 19.9241C131.516 20.4162 131.286 20.7998 130.942 21.0748C130.598 21.3353 130.203 21.4656 129.759 21.4656C129.271 21.4656 128.869 21.3136 128.554 21.0096C128.238 20.6912 128.08 20.3077 128.08 19.859C128.08 19.3958 128.224 18.9616 128.511 18.5564C128.812 18.1511 129.235 17.7603 129.78 17.384C130.34 16.9932 131 16.5952 131.76 16.1899L131.803 16.1031C131.215 16.0886 130.684 15.9656 130.211 15.734C129.737 15.5024 129.364 15.184 129.092 14.7787C128.834 14.3735 128.704 13.8886 128.704 13.3241C128.704 12.6149 128.877 11.9853 129.221 11.4353C129.579 10.8708 130.074 10.4294 130.706 10.1109C131.351 9.77805 132.104 9.6116 132.965 9.6116C133.381 9.6116 133.754 9.65502 134.084 9.74187C134.428 9.82871 134.758 9.95174 135.073 10.1109L136.859 9.65502L137.892 9.93726L137.311 18.9471C137.297 19.2077 137.325 19.4103 137.397 19.555C137.469 19.6853 137.598 19.7504 137.784 19.7504C137.942 19.7504 138.107 19.7142 138.279 19.6419C138.466 19.555 138.674 19.4465 138.903 19.3162L139.355 20.3583C139.14 20.5175 138.853 20.684 138.494 20.8577C138.15 21.0169 137.777 21.1544 137.376 21.2702C136.974 21.386 136.587 21.4439 136.214 21.4439C135.482 21.4439 134.93 21.2485 134.557 20.8577C134.198 20.4524 134.055 19.8735 134.127 19.1208L134.385 16.0162ZM134.794 11.1096C134.593 11.0083 134.414 10.9432 134.256 10.9142C134.112 10.8853 133.933 10.8708 133.718 10.8708C133.187 10.8708 132.764 11.1024 132.448 11.5656C132.133 12.0287 131.975 12.6438 131.975 13.411C131.975 13.9754 132.097 14.4241 132.341 14.757C132.585 15.0754 132.907 15.2346 133.309 15.2346C133.51 15.2346 133.703 15.1912 133.89 15.1044C134.091 15.0031 134.299 14.8656 134.514 14.6919L134.794 11.1096Z" fill="#159F4A"/>
<path d="M146.752 7.26686L144.966 6.89778L145.095 5.76884H155.896L156.241 9.76358L154.885 9.91555L154.605 8.96029C154.462 8.46818 154.304 8.09186 154.132 7.83134C153.96 7.57081 153.737 7.39713 153.465 7.31028C153.207 7.20897 152.862 7.15831 152.432 7.15831H150.151L149.936 12.4774H154.648L154.562 13.9971H149.893L149.635 19.7287H152.217C152.633 19.7287 152.992 19.6853 153.293 19.5985C153.594 19.4971 153.845 19.3235 154.046 19.0774C154.247 18.8169 154.426 18.4478 154.584 17.9702L154.906 16.9064H156.305L155.767 21.1399H144.363L144.493 19.9458L146.235 19.6853L146.752 7.26686Z" fill="#159F4A"/>
<path d="M159.426 5.55173C160 5.21883 160.617 4.9366 161.276 4.70502C161.951 4.45896 162.639 4.33594 163.342 4.33594C164.117 4.33594 164.791 4.48067 165.365 4.77015C165.938 5.05962 166.419 5.4866 166.806 6.05107C167.208 6.61555 167.502 7.31752 167.688 8.157C167.889 8.982 167.99 9.93726 167.99 11.0228C167.99 12.2241 167.911 13.3531 167.753 14.4096C167.595 15.4662 167.351 16.4287 167.021 17.2971C166.706 18.1511 166.304 18.8892 165.816 19.5116C165.329 20.134 164.762 20.6116 164.117 20.9445C163.471 21.2774 162.747 21.4439 161.943 21.4439C161.068 21.4439 160.301 21.2412 159.641 20.836C158.981 20.4162 158.465 19.8156 158.092 19.034C157.733 18.2379 157.554 17.2754 157.554 16.1465C157.554 15.2346 157.662 14.3879 157.877 13.6063C158.092 12.8103 158.408 12.1228 158.823 11.5438C159.254 10.9504 159.785 10.4945 160.416 10.1761C161.061 9.84318 161.814 9.67674 162.675 9.67674C162.919 9.67674 163.17 9.70568 163.428 9.76358C163.701 9.807 163.966 9.87213 164.224 9.95897C164.482 10.0313 164.69 10.1182 164.848 10.2195C164.848 9.90108 164.834 9.58989 164.805 9.28595C164.791 8.982 164.762 8.69252 164.719 8.41752C164.662 7.80963 164.547 7.32476 164.375 6.96291C164.217 6.60107 164.002 6.34055 163.729 6.18134C163.457 6.02212 163.112 5.94252 162.696 5.94252C162.194 5.94252 161.707 6.02212 161.233 6.18134C160.76 6.34055 160.301 6.53594 159.856 6.76752L159.426 5.55173ZM162.395 20.0761C162.74 20.0761 163.041 19.8952 163.299 19.5333C163.571 19.1715 163.808 18.6142 164.009 17.8616C164.224 17.0945 164.403 16.1248 164.547 14.9524C164.619 14.33 164.676 13.7294 164.719 13.1504C164.762 12.5715 164.784 12.0215 164.784 11.5004C164.626 11.3991 164.461 11.3195 164.289 11.2616C164.117 11.2037 163.944 11.1603 163.772 11.1313C163.6 11.0879 163.414 11.0662 163.213 11.0662C162.696 11.0662 162.259 11.305 161.9 11.7827C161.556 12.2458 161.291 12.8971 161.104 13.7366C160.932 14.5616 160.846 15.5241 160.846 16.6241C160.846 17.2031 160.882 17.7096 160.954 18.1439C161.025 18.5636 161.126 18.9182 161.255 19.2077C161.398 19.4971 161.563 19.7142 161.75 19.859C161.936 20.0037 162.151 20.0761 162.395 20.0761Z" fill="#159F4A"/>
<path d="M173.79 21.4656C173.073 21.4656 172.449 21.3425 171.918 21.0965C171.388 20.836 170.979 20.4669 170.692 19.9893C170.405 19.4971 170.262 18.9182 170.262 18.2524C170.262 17.9774 170.283 17.6083 170.326 17.1452C170.369 16.682 170.419 16.161 170.477 15.582C170.548 15.0031 170.627 14.4169 170.713 13.8235C170.799 13.2156 170.871 12.6438 170.929 12.1083C170.972 11.8188 170.95 11.609 170.864 11.4787C170.792 11.3484 170.649 11.2833 170.434 11.2833C170.276 11.2833 170.097 11.3195 169.896 11.3919C169.695 11.4498 169.48 11.5294 169.25 11.6307L168.884 10.5234C169.085 10.3932 169.365 10.2702 169.724 10.1544C170.082 10.0241 170.47 9.91555 170.885 9.82871C171.316 9.72739 171.71 9.67674 172.069 9.67674C172.514 9.67674 172.879 9.7491 173.166 9.89384C173.467 10.0386 173.69 10.2557 173.833 10.5452C173.977 10.8346 174.034 11.2037 174.005 11.6524C173.977 12.0577 173.919 12.5063 173.833 12.9985C173.747 13.4906 173.661 14.0261 173.575 14.605C174.091 14.3879 174.579 14.2215 175.038 14.1057C175.497 13.9754 175.949 13.9103 176.394 13.9103C177.211 13.9103 177.835 14.1419 178.266 14.605C178.71 15.0537 178.933 15.7195 178.933 16.6024C178.933 17.2392 178.811 17.8544 178.567 18.4478C178.323 19.0267 177.972 19.5406 177.513 19.9893C177.054 20.4379 176.508 20.7998 175.877 21.0748C175.246 21.3353 174.55 21.4656 173.79 21.4656ZM174.199 20.1846C174.558 20.1846 174.866 20.0327 175.124 19.7287C175.382 19.4103 175.583 18.9978 175.727 18.4912C175.884 17.9846 175.963 17.4419 175.963 16.8629C175.963 16.3708 175.884 16.009 175.727 15.7774C175.569 15.5313 175.304 15.4083 174.931 15.4083C174.715 15.4083 174.479 15.4445 174.221 15.5169C173.977 15.5748 173.704 15.6833 173.403 15.8425C173.374 16.0307 173.338 16.2478 173.295 16.4938C173.267 16.7254 173.238 16.9642 173.209 17.2103C173.181 17.4564 173.159 17.6952 173.145 17.9267C173.13 18.1439 173.123 18.3392 173.123 18.5129C173.123 19.0485 173.202 19.461 173.36 19.7504C173.518 20.0399 173.797 20.1846 174.199 20.1846ZM181.837 21.4656C181.106 21.4656 180.561 21.2629 180.202 20.8577C179.858 20.4524 179.722 19.8735 179.793 19.1208L180.546 10.0024H183.623L182.935 18.9471C182.92 19.2221 182.949 19.4248 183.021 19.555C183.092 19.6853 183.229 19.7504 183.43 19.7504C183.587 19.7504 183.76 19.7142 183.946 19.6419C184.132 19.5695 184.355 19.4754 184.613 19.3596L185 20.4886C184.799 20.6189 184.52 20.7564 184.161 20.9011C183.817 21.0458 183.437 21.1761 183.021 21.2919C182.619 21.4077 182.225 21.4656 181.837 21.4656Z" fill="#159F4A"/>
</svg>
