<svg width="50" height="50" viewBox="0 0 50 50" fill="none" xmlns="http://www.w3.org/2000/svg">
<g clip-path="url(#clip0_4151_2680)">
<path d="M0 21.9688H20.5078V29.293H0V21.9688Z" fill="white"/>
<path d="M0 50H20.5078V32.2266H0V50ZM11.7188 35.1562H14.6484V38.0859H11.7188V35.1562ZM5.85938 35.1562H8.78906V38.0859H5.85938V35.1562Z" fill="white"/>
<path d="M50 35.1562H23.4375V43.9453H35.1562V50H38.0859V43.9453H43.9453V38.0859H50V35.1562Z" fill="white"/>
<path d="M19.043 11.7188H25.5088L28.4385 8.78906H46.875V0H19.043C8.54297 0 0 8.54297 0 19.043H11.7188C11.7188 15.0039 15.0049 11.7188 19.043 11.7188Z" fill="white"/>
<path d="M46.875 29.2969V23.997L41.0156 21.0673V11.7188H32.2266V21.0673L26.3672 23.997V29.2969H29.2969V25.8077L34.0372 23.4375H35.1562V29.2969H38.0859V23.4375H39.205L43.9453 25.8077V29.2969H46.875Z" fill="white"/>
</g>
<defs>
<clipPath id="clip0_4151_2680">
<rect width="50" height="50" fill="white"/>
</clipPath>
</defs>
</svg>
