<svg width="51" height="50" viewBox="0 0 51 50" fill="none" xmlns="http://www.w3.org/2000/svg">
<path d="M7.69531 10.5107C8.14844 10.6748 9.54902 11.5554 9.99219 11.7978L11.6504 10.8301C12.3735 10.3951 13.2204 10.1756 14.0732 10.2099C14.4072 8.61912 15.0684 7.11521 16.0313 5.77244C16.0449 5.75388 16.0576 5.73533 16.0713 5.71677C15.2367 5.67097 14.4228 5.74519 13.6445 5.92146C13.1043 5.03621 12.1721 3.89431 10.6688 3.1113C9.95107 2.73748 9.0666 3.01638 8.69297 3.73386C8.31924 4.45144 8.59795 5.33601 9.31553 5.70964C10.0355 6.08464 10.5436 6.60183 10.8867 7.06267C9.54395 7.90642 8.43496 9.09793 7.69531 10.5107Z" fill="white"/>
<path d="M39.6787 10.828L41.3379 11.7977C41.7907 11.5497 43.1729 10.6802 43.6348 10.5096C42.8941 9.09625 41.7835 7.90407 40.4392 7.06041C40.7804 6.6028 41.2884 6.08776 42.0146 5.70953C42.7321 5.3359 43.0108 4.45123 42.6371 3.73375C42.2635 3.01617 41.3788 2.73766 40.6613 3.11119C39.1578 3.8943 38.2256 5.03639 37.6854 5.92164C36.9068 5.74528 36.0926 5.67125 35.2578 5.71754C36.2422 7.07301 36.917 8.59742 37.2568 10.2097C37.2568 10.2097 38.5177 10.0934 39.6787 10.828Z" fill="white"/>
<path d="M19.4835 10.8233C20.1622 10.416 20.9425 10.2012 21.7423 10.2012C22.5421 10.2012 23.3224 10.416 24.0011 10.8233L25.6603 11.793L27.3194 10.8233C27.9981 10.416 28.7784 10.2012 29.5782 10.2012C30.378 10.2012 31.1583 10.416 31.837 10.8233L33.4962 11.793L34.462 11.2295C34.2442 9.87893 33.7188 8.60061 32.9112 7.47464C31.2395 5.14075 28.5286 3.7472 25.6605 3.7471C24.714 1.3513 22.5587 0.231962 22.4532 0.178545C21.7412 -0.208662 20.8424 0.0542282 20.4596 0.770732C20.0599 1.5096 20.3714 2.43421 21.1289 2.79183C21.1289 2.79183 22.0536 3.29104 22.6573 4.27142C20.9705 4.87649 19.4775 5.98284 18.4092 7.47366C17.6016 8.59964 17.0762 9.87796 16.8594 11.2285L17.8242 11.793L19.4835 10.8233Z" fill="white"/>
<path d="M18.6211 31.6396C18.1641 31.5811 17.7354 31.5547 17.3672 31.5469C17.3975 32.9648 17.6826 35.2656 19.082 36.666C20.1523 37.7353 21.7744 38.1387 22.9473 38.2891C23.4043 38.3477 23.833 38.373 24.2012 38.3809C24.1709 36.9629 23.8857 34.6621 22.4863 33.2617C21.416 32.1924 19.7939 31.7891 18.6211 31.6396Z" fill="white"/>
<path d="M25.6631 25.3359C24.6826 26.3594 23.2627 28.1816 23.2578 30.1562C24.2714 30.7896 25.0487 31.5855 25.665 32.6143C26.2813 31.5855 27.0587 30.7896 28.0723 30.1562C28.0674 28.1934 26.6426 26.3633 25.6631 25.3359Z" fill="white"/>
<path d="M30.0664 32.3936C29.6211 32.6201 29.2051 32.9043 28.8477 33.2617C27.7783 34.332 27.375 35.9541 27.2246 37.127C27.167 37.584 27.1406 38.0127 27.1328 38.3818C28.5508 38.3516 30.8516 38.0664 32.252 36.666C33.6426 35.2754 33.9307 32.9688 33.9639 31.5469C32.9126 31.5667 31.3452 31.7417 30.0664 32.3936Z" fill="white"/>
<path d="M46.7184 14.5725C46.7389 13.4856 45.4371 12.7512 44.5162 13.3264L41.3365 15.1829L38.1803 13.3391C37.7213 13.0579 37.1158 13.0579 36.6568 13.3401L33.5006 15.1829L30.3443 13.3391C29.8854 13.0579 29.2799 13.0579 28.8209 13.3391L25.6646 15.1829L22.5084 13.3391C22.0494 13.0579 21.4439 13.0579 20.985 13.3391L17.8287 15.1829L14.6725 13.3391C14.2135 13.0579 13.608 13.0579 13.149 13.3401L9.99277 15.1829L6.81309 13.3264C5.88437 12.7464 4.57773 13.4964 4.60996 14.5911V42.596C4.60996 46.677 7.93027 49.9973 12.0113 49.9973H39.318C43.399 49.9973 46.7193 46.677 46.7193 42.596V14.5911C46.7193 14.5852 46.7184 14.5784 46.7184 14.5725ZM36.7887 33.0843C36.4996 35.4514 35.6461 37.4036 34.3209 38.7288C32.9957 40.054 31.0436 40.9075 28.6754 41.1966C27.6725 41.3264 26.4264 41.3303 25.6646 41.2561C24.9059 41.3303 23.6539 41.3255 22.6539 41.1966C20.2857 40.9075 18.3336 40.054 17.0084 38.7288C15.6832 37.4036 14.8297 35.4514 14.5406 33.0843C14.3316 31.3704 14.4869 30.0091 14.4928 29.9514C14.5719 29.2776 15.1041 28.7454 15.7779 28.6673C15.8346 28.6604 17.1969 28.5052 18.9098 28.7151C19.4381 28.7796 19.9439 28.8733 20.4283 28.9925C20.6803 27.4778 21.4088 25.9212 22.5748 24.4309C23.6383 23.0716 24.7115 22.218 24.7564 22.1829C25.2887 21.762 26.0406 21.762 26.5729 22.1829C26.6178 22.218 27.691 23.0716 28.7545 24.4309C29.9205 25.9212 30.649 27.4778 30.901 28.9925C31.3854 28.8733 31.8912 28.7796 32.4195 28.7151C34.1324 28.5052 35.4947 28.6604 35.5514 28.6673C36.2252 28.7454 36.7574 29.2776 36.8365 29.9514C36.8424 30.0091 36.9977 31.3704 36.7887 33.0843Z" fill="white"/>
</svg>
