<svg width="24" height="24" viewBox="0 0 24 24" fill="none" xmlns="http://www.w3.org/2000/svg">
<path d="M21.4383 11.0528L12.2483 20.2428C11.1225 21.3687 9.59552 22.0012 8.00334 22.0012C6.41115 22.0012 4.88418 21.3687 3.75834 20.2428C2.63249 19.117 2 17.59 2 15.9978C2 14.4057 2.63249 12.8787 3.75834 11.7528L12.9483 2.56285C13.6989 1.81229 14.7169 1.39062 15.7783 1.39062C16.8398 1.39063 17.8578 1.81229 18.6083 2.56285C19.3589 3.31341 19.7806 4.33139 19.7806 5.39285C19.7806 6.4543 19.3589 7.47229 18.6083 8.22285L9.40834 17.4128C9.03306 17.7881 8.52406 17.999 7.99334 17.999C7.46261 17.999 6.95362 17.7881 6.57834 17.4128C6.20306 17.0376 5.99222 16.5286 5.99222 15.9978C5.99222 15.4671 6.20306 14.9581 6.57834 14.5828L15.0683 6.10285" stroke="#2C2C2C" stroke-width="2" stroke-linecap="round" stroke-linejoin="round"/>
</svg>
