<svg width="68" height="59" viewBox="0 0 68 59" fill="none" xmlns="http://www.w3.org/2000/svg">
<path d="M54.3253 1.56641L15.3253 58.5664L13.6749 57.4375L52.6749 0.4375L54.3253 1.56641Z" fill="white"/>
<path fill-rule="evenodd" clip-rule="evenodd" d="M2.98135 4.36265C5.98239 2.48738 10.7612 4.53418 14.4982 8.98545C18.2356 4.53392 23.0171 2.48717 26.0185 4.36265L26.6354 4.82749C29.4996 7.41468 29.0365 13.7495 25.4186 19.5401L24.6718 20.6646C21.6482 24.9318 17.6257 27.5112 14.435 27.4237C10.9927 27.4407 6.62331 24.4127 3.57949 19.5418C-0.280297 13.3648 -0.547966 6.56876 2.98135 4.36265ZM24.4889 6.8082C23.9809 6.49116 22.8002 6.28642 20.8146 7.35337C19.3279 8.15234 17.7113 9.5249 16.2584 11.3934C16.2925 11.447 16.3289 11.5 16.3627 11.5541C18.6866 15.2733 19.7061 19.2162 19.3808 22.2472C20.6348 21.1759 21.8846 19.7514 22.9713 18.0123C24.6845 15.2706 25.5216 12.5071 25.6066 10.3475C25.6949 8.09719 24.9964 7.12643 24.4889 6.8082ZM10.3214 18.4242C9.13285 18.099 7.81728 18.2513 6.68984 18.9557C7.12149 19.6462 7.70745 20.1828 8.3749 20.5467C9.77737 21.3114 11.5413 21.3182 12.9926 20.4117C12.3585 19.3969 11.3913 18.7169 10.3214 18.4242ZM14.4486 14.109C13.3215 14.8135 12.6062 15.9283 12.3773 17.139C12.1717 18.2287 12.3586 19.3972 12.9926 20.4117C14.4438 19.5049 15.2112 17.9162 15.1391 16.3204C15.1046 15.5613 14.8797 14.7995 14.4486 14.109ZM11.1195 12.1043C10.7638 12.3553 10.4789 12.6735 10.2702 13.0289C9.72562 13.9565 9.7017 15.1485 10.3112 16.1239C9.70156 15.1483 8.62044 14.6463 7.54775 14.7293C7.1366 14.7613 6.72624 14.88 6.34463 15.0899C6.41646 15.4097 6.54223 15.7242 6.72573 16.0179C6.78501 16.1127 6.84938 16.2039 6.91714 16.2896C7.8134 17.4236 9.41386 17.7559 10.694 17.0519C10.7423 17.0252 10.7902 16.996 10.8375 16.9664C10.885 16.9367 10.9324 16.906 10.9777 16.8741C12.1718 16.0324 12.5743 14.4495 11.9484 13.1468C11.901 13.0482 11.847 12.9495 11.7877 12.8546C11.604 12.5606 11.3758 12.3092 11.1195 12.1043ZM6.90859 10.6825C6.5388 11.38 6.54047 12.2514 6.98891 12.9691C7.02305 13.0237 7.05873 13.0773 7.09658 13.128C7.556 13.7427 8.27883 14.0686 9.00722 14.044C9.34895 13.4 9.37372 12.6075 9.0226 11.9249C8.99365 11.8687 8.9627 11.812 8.92861 11.7574C8.48009 11.0396 7.69775 10.6557 6.90859 10.6825Z" fill="white"/>
<path fill-rule="evenodd" clip-rule="evenodd" d="M41.9813 34.3626C44.9824 32.4874 49.7612 34.5342 53.4982 38.9854C57.2356 34.5339 62.0171 32.4872 65.0185 34.3626L65.6354 34.8275C68.4996 37.4147 68.0365 43.7495 64.4186 49.5401L63.6718 50.6646C60.6482 54.9318 56.6257 57.5112 53.435 57.4237C49.9927 57.4407 45.6233 54.4127 42.5795 49.5418C38.7197 43.3648 38.452 36.5688 41.9813 34.3626ZM63.4889 36.8082C62.9809 36.4912 61.8002 36.2864 59.8146 37.3534C58.3279 38.1523 56.7113 39.5249 55.2584 41.3934C55.2925 41.447 55.3289 41.5 55.3627 41.5541C57.6866 45.2733 58.7061 49.2162 58.3808 52.2472C59.6348 51.1759 60.8846 49.7514 61.9713 48.0123C63.6845 45.2706 64.5216 42.5071 64.6066 40.3475C64.6949 38.0972 63.9964 37.1264 63.4889 36.8082ZM49.3214 48.4242C48.1329 48.099 46.8173 48.2513 45.6898 48.9557C46.1215 49.6462 46.7075 50.1828 47.3749 50.5467C48.7774 51.3114 50.5413 51.3182 51.9926 50.4117C51.3585 49.3969 50.3913 48.7169 49.3214 48.4242ZM53.4486 44.109C52.3215 44.8135 51.6062 45.9283 51.3773 47.139C51.1717 48.2287 51.3586 49.3972 51.9926 50.4117C53.4438 49.5049 54.2112 47.9162 54.1391 46.3204C54.1046 45.5613 53.8797 44.7994 53.4486 44.109ZM50.1195 42.1043C49.7638 42.3553 49.4789 42.6735 49.2702 43.0289C48.7256 43.9565 48.7017 45.1485 49.3112 46.1239C48.7016 45.1483 47.6204 44.6463 46.5478 44.7293C46.1366 44.7613 45.7262 44.88 45.3446 45.0899C45.4165 45.4097 45.5422 45.7242 45.7257 46.0179C45.785 46.1127 45.8494 46.2039 45.9171 46.2896C46.8134 47.4236 48.4139 47.7559 49.694 47.0519C49.7423 47.0252 49.7902 46.996 49.8375 46.9664C49.885 46.9367 49.9324 46.906 49.9777 46.8741C51.1718 46.0324 51.5743 44.4495 50.9484 43.1468C50.901 43.0482 50.847 42.9495 50.7877 42.8546C50.604 42.5606 50.3758 42.3092 50.1195 42.1043ZM45.9086 40.6825C45.5388 41.38 45.5405 42.2514 45.9889 42.9691C46.0231 43.0237 46.0587 43.0773 46.0966 43.128C46.556 43.7427 47.2788 44.0686 48.0072 44.044C48.349 43.4 48.3737 42.6075 48.0226 41.9249C47.9937 41.8687 47.9627 41.812 47.9286 41.7574C47.4801 41.0396 46.6978 40.6557 45.9086 40.6825Z" fill="white"/>
</svg>
