<svg width="180" height="180" viewBox="0 0 180 180" fill="none" xmlns="http://www.w3.org/2000/svg">
<circle opacity="0.1" cx="90" cy="90" r="90" fill="#159F4A"/>
<circle opacity="0.2" cx="90" cy="90" r="71" fill="#159F4A"/>
<rect x="66" y="66" width="48" height="48" rx="24" fill="#159F4A"/>
<path fill-rule="evenodd" clip-rule="evenodd" d="M76.8358 79.177C80.2656 77.0338 85.727 79.373 89.9979 84.4602C94.2693 79.3727 99.7338 77.0336 103.164 79.177L103.869 79.7083C107.142 82.665 106.613 89.9049 102.478 96.5227L101.625 97.8079C98.1694 102.685 93.5723 105.633 89.9257 105.532C85.9916 105.552 80.9981 102.091 77.5194 96.5247C73.1082 89.4652 72.8023 81.6983 76.8358 79.177ZM101.416 81.9719C100.835 81.6096 99.4859 81.3756 97.2167 82.595C95.5176 83.5081 93.67 85.0767 92.0096 87.2122C92.0486 87.2734 92.0902 87.334 92.1288 87.3958C94.7847 91.6463 95.9498 96.1526 95.578 99.6165C97.0112 98.3922 98.4395 96.7642 99.6815 94.7766C101.639 91.6433 102.596 88.485 102.693 86.0168C102.794 83.4451 101.996 82.3356 101.416 81.9719ZM85.2245 95.2473C83.8661 94.8757 82.3626 95.0497 81.0741 95.8547C81.5674 96.644 82.2371 97.2572 82.9999 97.6731C84.6027 98.547 86.6186 98.5548 88.2772 97.5188C87.5525 96.359 86.4472 95.5818 85.2245 95.2473ZM89.9413 90.3157C88.6531 91.1208 87.8356 92.3949 87.5741 93.7786C87.339 95.0239 87.5527 96.3593 88.2772 97.5188C89.9358 96.4824 90.8129 94.6667 90.7304 92.843C90.6909 91.9754 90.434 91.1048 89.9413 90.3157ZM86.1366 88.0247C85.7301 88.3114 85.4045 88.6752 85.1659 89.0813C84.5436 90.1414 84.5162 91.5037 85.2128 92.6184C84.5161 91.5034 83.2805 90.9297 82.0546 91.0247C81.5847 91.0611 81.1157 91.1968 80.6796 91.4368C80.7617 91.8022 80.9054 92.1616 81.1151 92.4973C81.1829 92.6057 81.2564 92.7098 81.3339 92.8079C82.3582 94.1038 84.1873 94.4836 85.6503 93.679C85.7055 93.6485 85.7602 93.6151 85.8143 93.5813C85.8686 93.5474 85.9228 93.5122 85.9745 93.4758C87.3392 92.5139 87.7991 90.7048 87.0839 89.2161C87.0297 89.1034 86.968 88.9906 86.9003 88.8821C86.6903 88.5461 86.4295 88.2588 86.1366 88.0247ZM81.3241 86.3997C80.9015 87.1968 80.9034 88.1928 81.4159 89.0129C81.4549 89.0753 81.4957 89.1367 81.5389 89.1946C82.064 89.8971 82.8901 90.2695 83.7225 90.2415C84.1131 89.5055 84.1414 88.5997 83.7401 87.8196C83.707 87.7553 83.6717 87.6906 83.6327 87.6282C83.1201 86.8078 82.226 86.3691 81.3241 86.3997Z" fill="white"/>
</svg>
