<svg width="50" height="50" viewBox="0 0 50 50" fill="none" xmlns="http://www.w3.org/2000/svg">
<g clip-path="url(#clip0_4474_14493)">
<mask id="mask0_4474_14493" style="mask-type:luminance" maskUnits="userSpaceOnUse" x="0" y="0" width="53" height="53">
<path d="M50.0039 0.0078125H0.00390625V50.0078H50.0039V0.0078125Z" fill="white"/>
<path d="M40.7756 18.12C40.7756 26.8816 33.6728 33.9844 24.9112 33.9844C16.1496 33.9844 9.04688 26.8816 9.04688 18.12C9.04688 9.3584 16.1496 2.25566 24.9112 2.25566C33.6728 2.25566 40.7756 9.3584 40.7756 18.12Z" fill="white"/>
<path d="M7.65234 50.6875V32.6227H35.7934L40.1735 27.695C41.2947 26.4337 42.8389 25.6696 44.5217 25.5438C44.6838 25.5315 44.8483 25.5254 45.0106 25.5254C46.5151 25.5254 47.9822 26.0575 49.1416 27.0236C51.8386 29.2711 52.2377 33.3174 50.0332 36.0481L38.4735 50.6875H7.65234Z" fill="white"/>
<path d="M45.0106 24.0645C44.8119 24.0645 44.6105 24.072 44.4119 24.0869C42.3481 24.2414 40.454 25.1785 39.0787 26.7257L35.1355 31.1618H9.11719H6.1875V34.0915V49.2266V52.1562H9.11719H37.7639H39.1834L40.0632 51.0422L51.1787 36.9653C52.4844 35.344 53.091 33.3046 52.8868 31.2204C52.6819 29.1288 51.6849 27.2401 50.0794 25.9022C48.6572 24.7172 46.8571 24.0645 45.0106 24.0645ZM45.0106 26.9941C46.1773 26.9941 47.2991 27.3989 48.2039 28.1529C50.2929 29.8938 50.5992 33.0254 48.8887 35.1379L37.7639 49.2266H9.11719V34.0915H36.4512L41.2685 28.6721C42.1354 27.6967 43.3296 27.1058 44.6311 27.0084C44.758 26.9988 44.8846 26.9941 45.0106 26.9941Z" fill="black"/>
<path d="M23.8089 39.6328H32.957C34.8922 39.6328 36.4609 38.0641 36.4609 36.1289C36.4609 34.1937 34.8922 32.625 32.957 32.625H23.6133" stroke="black" stroke-width="2.92969" stroke-miterlimit="10"/>
<path d="M24.9116 7.96611L28.2346 12.7956L33.8545 14.4635L30.2883 19.1162L30.4387 24.9766L24.9116 23.0226L19.3846 24.9766L19.535 19.1162L15.9688 14.4635L21.5887 12.7956L24.9116 7.96611Z" fill="white"/>
<path d="M24.9116 7.96611L28.2346 12.7956L33.8545 14.4635L30.2883 19.1162L30.4387 24.9766L24.9116 23.0226L19.3846 24.9766L19.535 19.1162L15.9688 14.4635L21.5887 12.7956L24.9116 7.96611Z" stroke="black" stroke-width="2.92969" stroke-miterlimit="10" stroke-linecap="square"/>
<path d="M11.9492 32.2995V50.0078V32.2995Z" fill="white"/>
<path d="M11.9492 32.2995V50.0078" stroke="black" stroke-width="2.92969" stroke-miterlimit="10"/>
</mask>
<g mask="url(#mask0_4474_14493)">
<mask id="mask1_4474_14493" style="mask-type:luminance" maskUnits="userSpaceOnUse" x="0" y="0" width="51" height="51">
<path d="M0.0078125 0.0156288H50.0078V50.0156H0.0078125V0.0156288Z" fill="white"/>
</mask>
<g mask="url(#mask1_4474_14493)">
<path d="M40.7795 18.1278C40.7795 26.8895 33.6768 33.9922 24.9151 33.9922C16.1535 33.9922 9.05078 26.8895 9.05078 18.1278C9.05078 9.36621 16.1535 2.26348 24.9151 2.26348C33.6768 2.26348 40.7795 9.36621 40.7795 18.1278Z" fill="white"/>
<path d="M40.7795 18.1278C40.7795 26.8895 33.6768 33.9922 24.9151 33.9922C16.1535 33.9922 9.05078 26.8895 9.05078 18.1278C9.05078 9.36621 16.1535 2.26348 24.9151 2.26348C33.6768 2.26348 40.7795 9.36621 40.7795 18.1278Z" stroke="white" stroke-width="2.92969" stroke-miterlimit="10"/>
<path d="M7.65625 50.7031V32.6383H35.7973L40.1774 27.7106C41.2986 26.4493 42.8428 25.6853 44.5256 25.5594C44.6877 25.5472 44.8522 25.541 45.0146 25.541C46.519 25.541 47.9861 26.0731 49.1455 27.0393C51.8425 29.2867 52.2416 33.333 50.0371 36.0638L38.4774 50.7031H7.65625Z" fill="white"/>
<path d="M45.0145 24.0723C44.8158 24.0723 44.6144 24.0798 44.4158 24.0947C42.352 24.2492 40.4579 25.1863 39.0826 26.7335L35.1395 31.1696H9.12109H6.19141V34.0993V49.2344V52.1641H9.12109H37.7678H39.1873L40.0671 51.05L51.1826 36.9731C52.4883 35.3519 53.0949 33.3124 52.8907 31.2282C52.6858 29.1366 51.6888 27.248 50.0833 25.9101C48.6611 24.725 46.861 24.0723 45.0145 24.0723ZM45.0145 27.002C46.1812 27.002 47.303 27.4067 48.2078 28.1607C50.2968 29.9016 50.6031 33.0332 48.8926 35.1457L37.7678 49.2344H9.12109V34.0993H36.4551L41.2724 28.6799C42.1394 27.7045 43.3335 27.1136 44.635 27.0162C44.7619 27.0066 44.8885 27.002 45.0145 27.002Z" fill="white"/>
<path d="M23.8128 39.6406H32.9609C34.8961 39.6406 36.4648 38.0719 36.4648 36.1367C36.4648 34.2016 34.8961 32.6328 32.9609 32.6328H23.6172" stroke="white" stroke-width="2.92969" stroke-miterlimit="10"/>
<path d="M8.98183 47.7656H1.47266V32.1395H8.98183V47.7656Z" fill="white" stroke="white" stroke-width="2.92969" stroke-miterlimit="10"/>
<path d="M24.9194 7.97393L28.2424 12.8034L33.8623 14.4713L30.2961 19.124L30.4465 24.9844L24.9194 23.0304L19.3924 24.9844L19.5428 19.124L15.9766 14.4713L21.5965 12.8034L24.9194 7.97393Z" fill="white"/>
<path d="M24.9194 7.97393L28.2424 12.8034L33.8623 14.4713L30.2961 19.124L30.4465 24.9844L24.9194 23.0304L19.3924 24.9844L19.5428 19.124L15.9766 14.4713L21.5965 12.8034L24.9194 7.97393Z" stroke="white" stroke-width="2.92969" stroke-miterlimit="10" stroke-linecap="square"/>
<path d="M11.9531 32.3073V50.0156V32.3073Z" fill="white"/>
<path d="M11.9531 32.3073V50.0156" stroke="white" stroke-width="2.92969" stroke-miterlimit="10"/>
</g>
</g>
</g>
<defs>
<clipPath id="clip0_4474_14493">
<rect width="50" height="50" fill="white"/>
</clipPath>
</defs>
</svg>
