<svg width="50" height="50" viewBox="0 0 50 50" fill="none" xmlns="http://www.w3.org/2000/svg">
<g clip-path="url(#clip0_4385_17595)">
<path d="M40.3096 27.6904C42.3926 27.6904 44.3604 28.1973 46.0938 29.0957V21.4688L30.4062 25.5684C30.3086 26.043 30.1592 26.498 29.9639 26.9277C28.9395 29.1875 26.6611 30.7637 24.0234 30.7637C20.8828 30.7637 18.2539 28.5303 17.6406 25.5684L1.95312 21.4688V37.0732C1.95312 39.8945 4.24805 42.1895 7.06934 42.1895H27.8281C27.7363 41.5771 27.6885 40.9492 27.6885 40.3115C27.6885 33.3525 33.3506 27.6904 40.3096 27.6904Z" fill="white"/>
<path d="M17.5049 19.458C17.5049 17.1836 19.3564 15.332 21.6309 15.332H26.416C28.6904 15.332 30.542 17.1836 30.542 19.458V22.5029L46.9521 18.2139C47.5967 18.0459 48.0469 17.4629 48.0469 16.7969V7.32422C48.0469 6.51562 47.3906 5.85938 46.582 5.85938H33.8867V4.78711C33.8867 2.14746 31.7393 0 29.0996 0H18.9473C16.3076 0 14.1602 2.14746 14.1602 4.78711V5.85938H1.46484C0.65625 5.85938 0 6.51562 0 7.32422V16.7969C0 17.4629 0.450195 18.0459 1.09473 18.2139L17.5049 22.5029V19.458ZM17.0898 4.78711C17.0898 3.7627 17.9229 2.92969 18.9473 2.92969H29.0996C30.124 2.92969 30.957 3.7627 30.957 4.78711V5.85938H17.0898V4.78711Z" fill="white"/>
<path d="M21.6317 18.2656C20.9715 18.2656 20.4355 18.8016 20.4355 19.4618V24.2466C20.4355 26.2251 22.0456 27.8352 24.0241 27.8352C26.0026 27.8352 27.6127 26.2251 27.6127 24.2466V19.4618C27.6127 18.8016 27.0768 18.2656 26.4165 18.2656H21.6317Z" fill="white"/>
<path d="M40.3105 30.6172C34.9668 30.6172 30.6191 34.9648 30.6191 40.3086C30.6191 45.6523 34.9668 49.999 40.3105 49.999C45.6543 49.999 50.001 45.6523 50.001 40.3086C50.001 34.9648 45.6543 30.6172 40.3105 30.6172ZM44.5635 39.4414L40.7598 43.2451C40.2026 43.811 39.2543 43.821 38.6875 43.2451L36.0586 40.6152C35.4863 40.0439 35.4863 39.1162 36.0586 38.5439C36.6299 37.9717 37.5576 37.9717 38.1299 38.5439L39.7236 40.1377L42.4912 37.3701C43.0635 36.7979 43.9912 36.7979 44.5635 37.3701C45.1348 37.9424 45.1348 38.8701 44.5635 39.4414Z" fill="white"/>
</g>
<defs>
<clipPath id="clip0_4385_17595">
<rect width="50" height="50" fill="white"/>
</clipPath>
</defs>
</svg>
