<svg width="60" height="60" viewBox="0 0 60 60" fill="none" xmlns="http://www.w3.org/2000/svg">
<rect width="60" height="60" rx="30" fill="white"/>
<g clip-path="url(#clip0_4306_9143)">
<path d="M35.5864 23.0443L30.3498 28.2465L25.112 23.0443C22.2231 20.1743 22.2231 15.5109 25.112 12.5509C28.0009 9.68094 32.6975 9.68094 35.5864 12.5509C38.4753 15.5109 38.4753 20.1743 35.5864 23.0443Z" fill="#5FAF2D"/>
<path d="M25.112 37.748L30.3498 32.5469L35.5864 37.748C38.4753 40.618 38.4753 45.2813 35.5864 48.2413C32.6975 51.1113 28.002 51.1113 25.112 48.2413C22.2231 45.2824 22.2231 40.6191 25.112 37.748Z" fill="#005A28"/>
<path d="M37.7534 35.6927L32.5156 30.4016L37.7534 25.1994C40.6423 22.3294 45.3378 22.3294 48.2279 25.1994C51.1167 28.0694 51.1167 32.7327 48.2279 35.6927C45.339 38.5627 40.6423 38.5627 37.7534 35.6927Z" fill="#1EAF37"/>
<path d="M23.0395 25.1951L28.2773 30.3974L23.0395 35.5985C20.1507 38.4696 15.4551 38.4696 12.5651 35.5985C9.67622 32.7285 9.67622 28.0651 12.5651 25.1051C15.3651 22.3251 20.1507 22.3251 23.0395 25.1951Z" fill="#AAE641"/>
</g>
<defs>
<clipPath id="clip0_4306_9143">
<rect width="40" height="40" fill="white" transform="translate(10.3984 10.3984)"/>
</clipPath>
</defs>
</svg>
