<svg width="60" height="60" viewBox="0 0 60 60" fill="none" xmlns="http://www.w3.org/2000/svg">
<g clip-path="url(#clip0_4306_9151)">
<rect width="60" height="60" rx="30" fill="white"/>
<path fill-rule="evenodd" clip-rule="evenodd" d="M29.5 -8C8.82204 -8 -8 8.82204 -8 29.5C-8 50.178 8.82204 67 29.5 67C50.1764 67 67 50.178 67 29.5C67 8.82204 50.1764 -8 29.5 -8Z" fill="white"/>
<path fill-rule="evenodd" clip-rule="evenodd" d="M45.1394 8.48438C42.8497 14.357 37.6371 15.5789 30.0865 15.5789C29.2761 15.5789 28.4734 15.5661 27.6987 15.5547C26.9495 15.5445 26.2411 15.533 25.5467 15.533C24.93 15.533 24.3082 15.5407 23.6953 15.5674C24.7529 12.9707 26.4411 11.206 28.8442 10.1357C32.1939 8.64492 36.549 8.62963 40.3919 8.61816C42.0661 8.61179 43.669 8.60542 45.1394 8.48438Z" fill="#008F32"/>
<path fill-rule="evenodd" clip-rule="evenodd" d="M47.4933 10.3682C44.1066 17.7456 36.5585 18.4846 30.0883 18.4846C28.6677 18.4846 27.3069 18.4502 26.0467 18.4426L24.4171 24.8159C32.7628 18.0119 43.7995 24.7573 42.6197 35.0244C41.8246 41.9393 36.8949 46.4613 31.6798 47.7609C25.9983 49.1777 19.704 47.0576 16.8817 41.2678C16.5823 40.6562 16.0612 39.4305 15.8624 38.7755L21.8535 37.2364C21.9592 37.5817 22.1389 37.9155 22.3275 38.22C26.3385 44.6889 34.4663 41.4538 35.3837 34.7428C36.3177 27.9159 26.7386 24.2795 22.3733 32.2582L17.0601 29.9941L16.9684 29.9533L19.5307 19.667C19.6887 18.9357 20.2213 16.8932 20.313 16.5581C23.2092 5.90869 32.578 5.7405 40.093 5.71247C36.9853 4.4192 33.5783 3.70312 30.0017 3.70312C15.4763 3.70312 3.70312 15.4763 3.70312 30.0017C3.70312 44.5271 15.4763 56.3003 30.0017 56.3003C44.5271 56.3003 56.3003 44.5271 56.3003 30.0017C56.3003 22.1937 52.8957 15.1845 47.4933 10.3682Z" fill="#EB2316"/>
</g>
<defs>
<clipPath id="clip0_4306_9151">
<rect width="60" height="60" rx="30" fill="white"/>
</clipPath>
</defs>
</svg>
