<svg width="50" height="50" viewBox="0 0 50 50" fill="none" xmlns="http://www.w3.org/2000/svg">
<path d="M29.6738 7C31.4662 7.0002 32.9229 8.45658 32.9229 10.249V13.1143H39.7725C41.2448 13.1143 42.6052 13.8341 43.4375 15.0342L49.2158 23.373C49.4399 23.6931 49.5995 24.0454 49.7275 24.3975C49.7436 24.4134 49.7438 24.4299 49.7598 24.4619C49.9198 24.9259 50 25.4063 50 25.9023V33.4561C50 35.0886 49.1195 36.5129 47.791 37.2812C47.7909 37.2493 47.7754 37.2174 47.7754 37.1855C47.0551 33.6324 43.8857 31.0557 40.2686 31.0557C36.6356 31.0558 33.4664 33.6484 32.7461 37.2334C32.6981 37.4735 32.6667 37.6982 32.6348 37.9062H17.7812C17.7652 37.6822 17.7336 37.4416 17.6855 37.1855C16.9653 33.6324 13.7962 31.0557 10.1631 31.0557C6.5301 31.0557 3.36093 33.6484 2.64062 37.2334C2.60868 37.4255 2.57696 37.6181 2.54492 37.8262C1.08863 37.5062 0.000196342 36.2096 0 34.6572V10.249C0 8.45646 1.45646 7 3.24902 7H29.6738ZM32.9229 23.6934H46.5107L41.4688 16.3945C41.0846 15.8506 40.4445 15.5146 39.7725 15.5146H32.9229V23.6934ZM6.25 19C5.55964 19 5 19.5596 5 20.25C5 20.9404 5.55964 21.5 6.25 21.5H19.75C20.4404 21.5 21 20.9404 21 20.25C21 19.5596 20.4404 19 19.75 19H6.25ZM6.25 14C5.55964 14 5 14.5596 5 15.25C5 15.9404 5.55964 16.5 6.25 16.5H19.75C20.4404 16.5 21 15.9404 21 15.25C21 14.5596 20.4404 14 19.75 14H6.25Z" fill="white"/>
<path d="M45.4226 37.6657C44.9264 35.2329 42.7656 33.4563 40.2689 33.4563C37.756 33.4563 35.5954 35.2329 35.0992 37.6817C35.0352 38.0177 34.9872 38.3699 34.9872 38.722C34.9872 41.6189 37.3559 43.9877 40.2689 43.9877C43.1658 43.9877 45.5346 41.6189 45.5346 38.722C45.5346 38.3699 45.4865 38.0177 45.4226 37.6657ZM40.2689 40.6426C39.1965 40.6426 38.3323 39.7784 38.3323 38.722C38.3323 38.578 38.3642 38.4499 38.3803 38.3059C38.5563 37.4576 39.3565 36.8014 40.2689 36.8014C41.1812 36.8014 41.9654 37.4416 42.1415 38.3379C42.1574 38.4179 42.1895 38.578 42.1895 38.722C42.1895 39.7784 41.3252 40.6426 40.2689 40.6426Z" fill="white"/>
<path d="M15.3329 37.6657C14.8368 35.2329 12.66 33.4563 10.1632 33.4563C7.66642 33.4563 5.48975 35.2329 4.99359 37.6817C4.92961 38.0177 4.89757 38.3699 4.89757 38.722C4.89757 41.6189 7.26629 43.9877 10.1632 43.9877C13.0601 43.9877 15.429 41.6189 15.429 38.722C15.429 38.3699 15.3969 38.0177 15.3329 37.6657ZM10.1632 40.6426C9.10692 40.6426 8.24258 39.7784 8.24258 38.722C8.24258 38.578 8.25861 38.4499 8.27463 38.3059C8.45066 37.4576 9.25091 36.8014 10.1632 36.8014C11.0595 36.8014 11.8758 37.4576 12.0518 38.3379C12.0678 38.4179 12.0839 38.578 12.0839 38.722C12.0839 39.7784 11.2196 40.6426 10.1632 40.6426Z" fill="white"/>
</svg>
