<svg width="91" height="90" viewBox="0 0 91 90" fill="none" xmlns="http://www.w3.org/2000/svg">
<rect x="0.664062" width="90" height="90" rx="16" fill="white"/>
<g clip-path="url(#clip0_4243_9183)">
<path d="M54.0554 34.5703L46.2004 42.3736L38.3438 34.5703C34.0104 30.2653 34.0104 23.2703 38.3438 18.8303C42.6771 14.5253 49.7221 14.5253 54.0554 18.8303C58.3888 23.2703 58.3888 30.2653 54.0554 34.5703Z" fill="#5FAF2D"/>
<path d="M38.3438 56.6298L46.2004 48.8281L54.0554 56.6298C58.3888 60.9348 58.3888 67.9298 54.0554 72.3698C49.7221 76.6748 42.6788 76.6748 38.3438 72.3698C34.0104 67.9315 34.0104 60.9365 38.3438 56.6298Z" fill="#005A28"/>
<path d="M57.302 53.5391L49.4453 45.6024L57.302 37.7991C61.6353 33.4941 68.6786 33.4941 73.0136 37.7991C77.347 42.1041 77.347 49.0991 73.0136 53.5391C68.6803 57.8441 61.6353 57.8441 57.302 53.5391Z" fill="#1EAF37"/>
<path d="M35.2273 37.8005L43.084 45.6038L35.2273 53.4055C30.894 57.7122 23.8506 57.7122 19.5156 53.4055C15.1823 49.1005 15.1823 42.1055 19.5156 37.6655C23.7156 33.4955 30.894 33.4955 35.2273 37.8005Z" fill="#AAE641"/>
</g>
<defs>
<clipPath id="clip0_4243_9183">
<rect width="60" height="60" fill="white" transform="translate(16.2656 15.6016)"/>
</clipPath>
</defs>
</svg>
