<svg width="91" height="90" viewBox="0 0 91 90" fill="none" xmlns="http://www.w3.org/2000/svg">
<rect x="0.335938" width="90" height="90" rx="16" fill="white"/>
<path fill-rule="evenodd" clip-rule="evenodd" d="M44.8359 7C24.158 7 7.33594 23.822 7.33594 44.5C7.33594 65.178 24.158 82 44.8359 82C65.5123 82 82.3359 65.178 82.3359 44.5C82.3359 23.822 65.5123 7 44.8359 7Z" fill="white"/>
<path fill-rule="evenodd" clip-rule="evenodd" d="M68.0411 12.7188C64.6066 21.5276 56.7877 23.3605 45.4618 23.3605C44.2462 23.3605 43.0421 23.3414 41.8801 23.3242C40.7563 23.3089 39.6936 23.2917 38.652 23.2917C37.727 23.2917 36.7943 23.3032 35.875 23.3433C37.4613 19.4482 39.9937 16.8011 43.5983 15.1957C48.6229 12.9596 55.1555 12.9366 60.9198 12.9194C63.4312 12.9099 65.8355 12.9003 68.0411 12.7188Z" fill="#008F32"/>
<path fill-rule="evenodd" clip-rule="evenodd" d="M71.5681 15.5524C66.488 26.6184 55.1659 27.7269 45.4606 27.7269C43.3296 27.7269 41.2884 27.6753 39.3982 27.6638L36.9537 37.2238C49.4723 27.0178 66.0274 37.1359 64.2576 52.5366C63.065 62.9089 55.6704 69.6919 47.8478 71.6413C39.3256 73.7666 29.8841 70.5863 25.6507 61.9017C25.2016 60.9843 24.4199 59.1457 24.1217 58.1633L33.1083 55.8545C33.267 56.3725 33.5365 56.8732 33.8193 57.33C39.8359 67.0333 52.0276 62.1807 53.4037 52.1143C54.8047 41.8739 40.436 36.4192 33.8881 48.3873L25.9183 44.9911L25.7807 44.9299L29.6242 29.5005C29.8612 28.4035 30.66 25.3398 30.7977 24.8371C35.1419 8.86303 49.1952 8.61075 60.4676 8.5687C55.8061 6.6288 50.6955 5.55469 45.3307 5.55469C23.5426 5.55469 5.88281 23.2145 5.88281 45.0026C5.88281 66.7906 23.5426 84.4504 45.3307 84.4504C67.1187 84.4504 84.7785 66.7906 84.7785 45.0026C84.7785 33.2905 79.6717 22.7768 71.5681 15.5524Z" fill="#EB2316"/>
</svg>
